<?xml version="1.0" standalone="no"?>
<!DOCTYPE svg PUBLIC "-//W3C//DTD SVG 20010904//EN"
 "http://www.w3.org/TR/2001/REC-SVG-20010904/DTD/svg10.dtd">
<svg version="1.0" xmlns="http://www.w3.org/2000/svg"
 width="700.000000pt" height="700.000000pt" viewBox="0 0 700.000000 700.000000"
 preserveAspectRatio="xMidYMid meet">
<metadata>
Created by potrace 1.14, written by Peter Selinger 2001-2017
</metadata>
<g transform="translate(0.000000,700.000000) scale(0.100000,-0.100000)"
fill="#000000" stroke="none">
<path d="M3249 6836 c-2 -2 -35 -7 -74 -10 -38 -3 -79 -8 -90 -10 -11 -2 -42
-7 -69 -10 -27 -4 -53 -9 -56 -11 -4 -2 -22 -7 -41 -10 -179 -31 -451 -124
-609 -208 -170 -90 -337 -238 -399 -352 -61 -114 -64 -137 -67 -495 -1 -179
-3 -330 -3 -336 -1 -8 -84 -11 -283 -11 -316 0 -351 -4 -458 -39 -184 -62
-329 -211 -446 -459 -79 -167 -191 -508 -208 -635 -3 -25 -8 -56 -11 -69 -20
-106 -26 -375 -11 -556 4 -55 9 -102 11 -105 2 -3 6 -30 10 -60 12 -98 66
-342 102 -460 70 -232 151 -380 273 -500 83 -82 155 -129 244 -160 122 -43
167 -47 572 -48 214 -1 397 -1 407 -2 17 0 18 -18 16 -355 -3 -366 -2 -361
-39 -369 -15 -4 -43 -25 -33 -26 6 0 14 4 18 9 3 6 14 8 25 6 12 -2 18 0 15 6
-4 5 -2 9 3 9 5 0 9 -29 10 -65 0 -36 -1 -65 -3 -65 -2 0 -11 7 -19 16 -14 13
-14 18 -1 37 10 16 11 26 4 37 -9 13 -10 13 -6 -1 3 -9 -2 -27 -10 -39 -15
-22 -15 -24 5 -40 12 -10 18 -21 14 -24 -3 -4 0 -4 9 -1 11 4 15 -3 17 -25 3
-44 6 -54 16 -61 4 -4 -4 -6 -18 -6 -21 0 -24 2 -15 13 17 20 2 31 -21 16 -24
-15 -40 -15 -40 -1 0 5 4 8 9 4 15 -9 23 13 11 32 -9 15 -10 14 -4 -7 6 -22 5
-23 -9 -11 -13 10 -14 18 -6 35 10 20 10 20 -5 2 -9 -11 -16 -24 -16 -29 0 -4
-4 -6 -9 -3 -5 3 -12 -1 -15 -9 -4 -13 -2 -13 14 -5 25 14 30 13 24 -5 -4 -8
-11 -12 -17 -8 -5 3 -7 1 -3 -5 3 -6 2 -13 -4 -17 -5 -3 -10 -1 -10 6 0 7 -7
4 -15 -7 -13 -18 -14 -17 -10 11 2 17 5 37 8 45 2 8 2 12 0 7 -3 -4 -9 -4 -15
-1 -5 3 -8 -2 -6 -12 2 -11 -6 -23 -20 -30 -16 -8 -19 -13 -10 -16 7 -3 18 2
24 11 10 12 11 4 8 -38 -3 -50 -2 -52 12 -33 8 11 14 25 13 29 -3 20 2 27 11
13 6 -10 10 -11 10 -2 0 20 16 14 17 -7 1 -12 -3 -18 -10 -15 -19 7 -41 -35
-26 -52 14 -17 -2 -19 -19 -2 -9 9 -12 9 -12 0 0 -7 5 -12 11 -12 6 0 3 -8 -6
-17 -16 -16 -16 -17 1 -30 10 -7 13 -13 5 -13 -7 0 -9 -5 -5 -11 9 -15 24 10
17 29 -5 12 -3 12 15 1 16 -10 18 -15 7 -26 -16 -15 -9 -49 11 -57 7 -3 18 3
24 12 10 15 11 14 4 -3 -4 -11 -7 -28 -8 -38 0 -9 -5 -15 -11 -13 -5 2 -9 9
-8 15 3 11 -9 15 -39 12 -10 -1 -18 3 -18 9 0 6 4 9 9 5 22 -13 22 19 1 35
-13 9 -20 22 -16 28 8 13 -19 23 -40 15 -14 -5 -15 -3 -5 15 15 28 37 42 27
16 -4 -10 -3 -15 1 -10 12 12 10 115 -2 108 -5 -3 -20 -18 -31 -32 -12 -14
-34 -32 -48 -39 -14 -8 -26 -18 -26 -23 0 -5 4 -6 10 -3 5 3 10 2 10 -2 0 -10
-31 -38 -51 -46 -11 -4 -11 -6 1 -6 22 -1 63 37 57 53 -3 7 7 22 22 34 l28 20
0 -29 c0 -20 -4 -26 -11 -19 -13 13 -26 13 -26 0 0 -5 5 -9 11 -7 6 1 14 -4
17 -12 2 -8 0 -11 -5 -8 -5 3 -26 -9 -45 -27 -33 -32 -36 -32 -57 -17 -20 16
-20 17 -4 40 9 14 12 21 6 18 -6 -4 -13 -1 -16 5 -3 7 -5 4 -5 -7 1 -11 -1
-26 -3 -33 -2 -8 20 -32 48 -53 52 -39 68 -45 37 -15 -10 11 -11 16 -3 16 6 0
18 -8 25 -17 12 -15 15 -16 23 -3 5 8 7 18 4 23 -3 5 0 7 8 5 8 -3 12 -12 10
-19 -2 -8 -4 -24 -4 -37 1 -14 -11 -33 -33 -50 -19 -15 -34 -31 -34 -37 0 -5
5 -3 10 5 5 8 10 12 10 8 0 -4 14 6 30 24 17 17 33 29 36 26 3 -3 -5 -15 -17
-27 l-22 -20 23 -19 c16 -13 20 -21 12 -26 -7 -4 -12 -3 -12 3 0 18 -37 22
-66 6 -16 -8 -23 -15 -16 -15 7 0 22 6 33 12 17 11 23 10 39 -10 11 -13 20
-17 22 -11 2 7 16 13 32 15 22 2 25 0 16 -10 -8 -10 -6 -15 6 -20 13 -5 14 -9
4 -21 -8 -9 -8 -15 -2 -15 6 0 12 6 15 13 2 6 8 9 12 5 4 -4 2 -16 -6 -25 -7
-10 -9 -15 -4 -10 4 4 17 -5 27 -20 10 -16 18 -23 18 -18 0 6 -6 19 -13 30
-15 25 -16 57 -1 62 7 2 11 -8 10 -24 -1 -22 4 -28 21 -29 12 -1 20 3 17 7 -3
5 0 9 6 9 6 0 10 -8 8 -18 -2 -10 -11 -16 -23 -14 -16 2 -17 1 -5 -7 9 -7 18
-7 24 -1 6 6 15 10 20 10 6 -1 0 -10 -13 -20 -13 -11 -18 -20 -12 -20 5 0 19
9 30 21 13 14 21 17 26 9 5 -8 12 -5 22 9 8 12 19 19 24 15 6 -3 3 -12 -8 -19
-14 -10 -15 -16 -6 -25 12 -13 46 0 43 16 -1 5 3 10 9 12 6 2 8 -3 5 -12 -5
-14 5 -21 28 -17 4 0 6 -8 5 -19 -1 -11 -5 -20 -9 -20 -5 0 -1 -11 7 -24 13
-19 14 -29 6 -45 -9 -17 -8 -22 10 -31 11 -7 23 -9 26 -7 2 3 -5 8 -16 12 -17
5 -19 10 -10 26 5 11 14 17 20 14 5 -4 9 -1 9 4 0 6 -7 11 -15 11 -8 0 -15 5
-15 11 0 5 4 8 8 5 5 -3 9 1 10 9 1 8 3 22 4 30 1 16 10 19 21 8 4 -3 2 -12
-4 -19 -7 -8 -7 -19 -1 -31 5 -10 8 -24 6 -31 -1 -7 0 -8 3 -2 7 15 23 2 17
-15 -4 -8 -10 -12 -15 -9 -5 3 -9 0 -9 -5 0 -18 19 -12 30 9 6 11 16 19 23 17
7 -1 11 6 11 16 -1 10 3 16 10 14 12 -5 9 -40 -5 -45 -5 -2 -9 -8 -9 -13 0 -5
10 -3 22 5 26 16 65 6 74 -19 4 -8 10 -15 16 -15 5 0 6 5 3 10 -3 6 -1 10 4
10 6 0 11 5 11 11 0 8 -4 8 -14 0 -11 -9 -13 -7 -13 12 0 25 32 36 35 11 1 -8
3 -21 4 -29 1 -8 7 -16 15 -19 10 -4 11 -1 4 13 -7 12 -6 22 1 29 17 17 33 15
19 -2 -8 -9 -8 -20 -1 -37 10 -22 10 -22 5 5 -6 26 -4 28 10 16 9 -7 14 -19
11 -26 -6 -15 21 -27 37 -17 7 5 12 14 12 22 0 25 20 22 21 -3 1 -17 -5 -26
-18 -29 -20 -6 -22 -30 -3 -27 6 1 13 -9 17 -22 7 -22 7 -22 5 2 -1 14 -8 24
-15 23 -6 -2 -12 2 -12 7 0 14 17 12 43 -5 21 -13 24 -13 35 5 7 11 8 20 3 20
-5 0 -11 -5 -13 -12 -3 -7 -12 -9 -23 -4 -14 5 -16 9 -7 18 20 20 51 19 62 -1
12 -23 13 -34 2 -27 -4 2 -13 -3 -19 -13 -9 -14 -7 -17 11 -18 11 -1 15 1 8 4
-10 4 -9 8 4 17 13 10 14 17 6 33 -11 21 0 43 22 43 6 0 5 -5 -1 -11 -13 -13
-6 -42 7 -34 5 3 11 1 15 -5 3 -5 -2 -10 -12 -10 -15 0 -16 -2 -3 -10 11 -7
17 -4 24 10 5 11 13 20 18 20 11 0 10 -17 -2 -25 -15 -10 -12 -42 5 -49 10 -3
18 1 21 12 11 35 22 47 40 44 11 -2 23 -9 27 -15 5 -8 7 -5 5 7 -2 10 2 21 9
23 15 5 9 -33 -8 -53 -9 -11 -8 -15 5 -20 9 -4 20 -4 23 0 4 3 -1 6 -11 6 -9
0 -15 4 -11 10 3 5 12 7 19 4 8 -3 17 -1 21 5 9 16 25 13 25 -5 0 -8 -4 -13
-9 -9 -6 3 -15 -4 -21 -15 -7 -13 -7 -20 0 -20 5 0 10 7 10 15 0 8 6 14 13 12
8 -1 12 10 11 36 -1 24 3 36 10 34 6 -2 11 -18 11 -35 -1 -18 3 -32 8 -32 5 0
7 11 5 25 -3 14 1 30 8 36 11 9 13 6 10 -19 -3 -26 0 -30 21 -27 13 1 27 -4
31 -12 7 -11 11 -8 20 12 6 14 17 25 23 25 6 0 2 -15 -10 -36 -20 -34 -20 -61
0 -49 5 4 9 -3 9 -14 0 -11 4 -22 9 -25 6 -4 6 5 2 21 -5 16 -13 27 -20 26
-16 -4 -14 12 4 27 8 7 15 20 15 29 0 14 2 14 10 1 5 -8 10 -10 10 -5 0 23
-18 37 -39 30 -16 -5 -20 -3 -15 9 3 9 9 14 13 11 11 -6 93 -20 180 -30 18 -2
36 -6 38 -9 6 -6 -30 -42 -57 -56 -11 -6 -17 -16 -14 -22 5 -7 2 -9 -8 -6 -8
4 -21 2 -29 -3 -9 -5 -4 -7 16 -5 17 1 29 8 28 14 -5 23 18 12 27 -13 5 -14
12 -25 14 -25 6 0 -4 30 -14 45 -4 6 1 17 10 26 15 14 19 14 38 -1 12 -10 18
-21 14 -24 -3 -4 2 -4 12 0 10 4 14 10 9 13 -5 3 -8 12 -7 19 1 6 2 18 3 26 0
8 9 13 19 11 9 -2 21 -4 25 -4 5 -1 6 -5 3 -10 -3 -5 1 -12 10 -15 8 -3 13
-10 9 -16 -8 -13 -46 21 -38 34 3 6 0 5 -8 -3 -11 -10 -11 -15 -1 -18 6 -3 9
-10 6 -15 -4 -6 -2 -8 4 -4 6 3 13 2 17 -4 3 -5 -1 -10 -9 -10 -9 0 -16 -5
-16 -10 0 -13 31 2 49 24 8 10 9 16 1 21 -22 14 -8 22 39 21 27 -1 56 -8 65
-15 9 -7 16 -11 16 -7 0 3 8 -2 18 -11 11 -10 17 -21 15 -25 -8 -15 6 -8 33
17 27 25 27 25 4 23 -12 -2 -24 2 -26 7 -3 6 32 10 92 10 89 0 98 -2 111 -23
9 -12 22 -22 29 -22 8 0 14 -4 14 -10 0 -5 5 -10 11 -10 8 0 8 4 0 14 -10 12
-8 17 7 25 11 6 22 8 24 5 3 -3 8 2 12 11 5 13 -2 12 -34 -6 -39 -22 -40 -22
-55 -3 -18 24 -19 40 -1 25 8 -7 17 -8 20 -3 3 5 18 8 33 7 15 0 46 2 67 6 22
4 51 3 64 -2 l24 -9 -38 -29 c-45 -33 -63 -30 -20 4 20 16 25 25 16 30 -8 5
-11 4 -7 -2 4 -5 -5 -16 -18 -23 -24 -13 -32 -30 -19 -43 8 -7 94 52 94 65 0
4 7 8 16 8 8 0 13 -4 10 -9 -7 -11 22 -23 36 -15 6 4 17 -1 25 -11 7 -11 13
-14 13 -9 0 6 -5 15 -12 22 -9 9 -9 12 -1 12 7 0 15 -4 18 -10 8 -13 26 -13
45 0 13 9 13 12 -2 21 -25 14 -23 33 1 19 27 -14 30 -13 28 9 -1 14 -5 17 -17
12 -8 -5 -23 -7 -32 -6 -14 3 -16 0 -8 -15 5 -9 6 -21 2 -25 -4 -5 -1 -5 6 -1
6 4 12 2 12 -4 0 -6 -8 -10 -17 -8 -10 2 -18 12 -18 23 0 11 -7 20 -15 20 -8
0 -14 -8 -13 -18 1 -12 -4 -17 -14 -13 -8 3 -11 1 -8 -4 3 -6 2 -10 -3 -10 -6
0 -13 7 -16 16 -4 11 -13 14 -30 10 -14 -3 -27 -2 -30 3 -3 5 12 11 33 13 22
2 37 0 35 -4 -3 -5 0 -8 5 -8 6 0 11 4 11 9 0 11 34 23 65 25 11 1 26 5 33 10
7 4 16 5 19 2 3 -3 13 0 21 7 13 10 14 9 5 -8 -5 -11 -9 -27 -8 -35 1 -8 3
-21 3 -28 1 -7 6 -11 10 -8 4 2 14 1 22 -4 22 -13 72 30 66 56 -4 14 -1 22 7
21 28 -1 47 3 47 11 0 4 -9 8 -19 8 -11 0 -17 -4 -14 -8 2 -5 -7 -7 -21 -4
-16 3 -30 -2 -38 -12 -12 -16 -11 -16 6 -2 18 14 18 13 12 -10 -6 -19 -5 -21
3 -10 9 13 11 13 11 -1 0 -17 -18 -29 -54 -36 -16 -3 -17 -1 -6 12 7 8 16 12
21 9 5 -3 9 0 9 5 0 16 -16 13 -34 -4 -20 -20 -25 -19 -23 5 1 11 7 19 16 17
7 -1 16 5 18 13 4 13 3 13 -6 0 -9 -13 -11 -12 -11 4 0 12 5 16 15 13 8 -4 17
-2 21 4 3 6 12 8 20 5 8 -3 14 0 14 6 0 6 3 9 6 5 3 -3 24 1 46 9 39 13 70 12
34 -2 -9 -3 -16 -14 -16 -23 1 -14 2 -14 11 1 5 10 15 18 20 18 14 0 -18 -45
-34 -46 -6 0 -20 -2 -29 -2 -10 -1 -18 -7 -18 -12 0 -7 7 -7 21 1 17 9 25 7
47 -13 15 -12 29 -24 31 -26 3 -1 -4 -8 -14 -16 -15 -11 -16 -14 -4 -21 8 -5
11 -5 7 0 -4 4 0 14 10 22 16 12 16 14 0 26 -11 9 -14 18 -7 28 5 8 9 10 9 5
0 -5 9 -1 20 9 14 12 35 18 65 18 25 0 48 4 52 10 4 6 0 8 -10 4 -9 -3 -21 1
-29 10 -11 15 -11 16 5 10 10 -4 16 -3 13 2 -3 5 1 12 10 15 10 4 14 1 12 -6
-2 -6 4 -20 14 -30 10 -10 16 -24 12 -30 -5 -7 -3 -8 6 -3 10 6 12 4 7 -8 -3
-10 -2 -17 3 -17 14 0 12 24 -2 38 -10 10 -10 15 2 23 12 8 11 9 -5 7 -14 -2
-21 4 -23 21 -2 15 0 21 7 16 6 -3 9 -10 7 -14 -3 -4 6 -8 19 -9 15 -1 26 5
29 16 3 10 14 18 23 19 10 1 29 4 43 6 14 2 34 -2 46 -9 17 -10 22 -9 32 7 8
12 8 19 2 19 -5 0 -10 -4 -10 -10 0 -5 -5 -10 -11 -10 -5 0 -7 5 -3 12 5 7 2
9 -9 5 -8 -3 -20 0 -26 7 -9 10 -3 13 29 12 22 -1 45 -7 52 -14 6 -6 19 -12
27 -11 9 0 5 4 -8 10 l-25 10 23 15 c12 9 20 23 19 32 -2 9 5 18 15 20 9 2 17
-2 17 -8 0 -6 -6 -8 -12 -4 -7 4 -10 3 -5 -1 4 -5 0 -19 -8 -32 -9 -13 -12
-23 -7 -23 5 0 14 12 21 26 7 16 17 24 26 20 9 -3 12 0 9 9 -5 11 8 14 33 6 2
-1 -5 -10 -14 -20 -9 -11 -23 -17 -31 -13 -10 3 -13 1 -8 -6 9 -15 64 -8 83
11 12 12 13 18 2 35 -9 14 -17 18 -24 12 -8 -7 -12 -1 -12 20 0 17 2 28 5 25
3 -2 12 0 21 5 10 5 23 5 32 -1 7 -5 11 -9 7 -10 -5 -1 -12 -3 -18 -4 -5 -1
-15 -3 -21 -4 -5 0 1 -12 15 -24 14 -13 22 -28 18 -32 -4 -5 -1 -5 6 -1 7 4
10 12 6 17 -8 13 16 40 28 33 6 -4 5 -10 -3 -15 -28 -17 -2 -14 31 4 31 17 32
18 8 13 -23 -5 -27 -3 -22 11 5 14 4 15 -4 4 -6 -8 -12 -9 -16 -3 -3 5 1 15 8
21 11 10 17 8 26 -6 10 -16 10 -15 5 5 -4 13 -2 22 4 22 10 0 15 -14 12 -32 0
-5 4 -8 9 -8 13 0 9 32 -5 42 -5 4 -17 5 -25 3 -11 -3 -16 2 -16 15 0 24 6 25
32 5 26 -20 36 -18 57 10 17 24 17 24 0 18 -16 -6 -16 -5 -4 10 13 17 15 16
33 -3 10 -11 24 -20 29 -20 6 0 1 9 -12 20 -13 10 -19 19 -13 20 5 0 16 -6 24
-12 12 -11 12 -10 4 2 -6 8 -11 25 -12 38 -1 19 2 21 14 12 10 -9 14 -9 14 -1
0 6 -4 11 -10 11 -5 0 -10 5 -10 10 0 7 6 7 20 0 15 -8 26 -7 45 6 28 18 50
52 40 62 -3 3 -8 -4 -11 -15 -9 -32 -49 -56 -73 -44 -10 6 -21 18 -25 27 -8
22 -8 26 4 19 9 -6 14 8 11 28 0 4 3 7 7 7 18 0 21 -14 7 -36 -13 -20 -12 -23
1 -28 21 -8 24 -8 24 5 0 5 -4 7 -10 4 -5 -3 -10 -1 -10 4 0 6 5 11 11 11 5 0
8 4 5 9 -3 5 1 12 10 15 24 9 29 7 16 -6 -7 -7 -12 -19 -12 -28 0 -9 6 -5 14
10 16 31 11 43 -17 34 -20 -6 -21 -5 -7 12 8 10 20 22 25 26 6 5 5 8 -2 8 -7
0 -17 -9 -23 -21 -10 -18 -13 -19 -28 -6 -9 8 -24 12 -32 9 -12 -4 -13 -3 -3
10 11 13 8 15 -18 13 -37 -2 -42 5 -26 38 13 29 44 48 33 22 -3 -8 -1 -15 4
-15 6 0 10 7 10 15 0 9 13 24 30 33 16 9 30 21 30 27 0 5 -5 4 -12 -3 -17 -17
-33 -15 -18 3 16 19 3 19 -16 0 -27 -26 -42 -12 -22 21 4 6 8 27 10 48 1 25 6
35 15 32 7 -3 13 -1 13 4 0 6 -7 10 -15 10 -13 0 -14 4 -5 20 8 14 8 20 0 20
-7 0 -8 6 -2 18 5 9 8 26 5 37 -2 11 -3 30 -3 43 0 12 1 28 1 35 0 6 -1 103
-2 215 0 112 1 205 3 207 2 2 136 5 298 6 248 1 307 4 372 20 294 70 470 290
639 801 27 82 50 158 53 170 2 13 9 41 14 63 6 22 13 56 16 75 6 34 8 52 26
190 8 66 5 404 -4 450 -2 14 -7 50 -10 80 -6 53 -10 76 -21 138 -3 15 -8 43
-11 62 -16 94 -68 304 -98 394 -109 326 -279 526 -510 605 -108 38 -174 42
-586 44 l-405 2 -1 435 c-2 404 -3 440 -22 512 -82 305 -365 533 -812 653 -99
27 -250 58 -335 70 -27 4 -59 10 -70 12 -25 6 -440 14 -446 9z m-1208 -5490
c-13 -15 1 -32 18 -22 4 3 17 -1 27 -9 15 -12 15 -14 3 -9 -10 3 -20 1 -24 -5
-3 -6 -11 -11 -16 -11 -6 0 -7 5 -3 12 5 7 3 8 -6 3 -9 -6 -11 -4 -5 4 6 10 3
11 -13 2 -12 -6 -24 -16 -28 -23 -4 -7 -3 -8 4 -4 7 4 12 3 12 -2 0 -13 -27
-23 -45 -16 -8 4 -15 1 -15 -6 0 -6 4 -9 8 -6 4 2 14 -4 20 -15 11 -17 10 -20
-5 -17 -13 2 -17 -2 -15 -16 3 -16 1 -18 -10 -8 -8 6 -19 8 -24 4 -5 -4 1 2
13 13 18 16 21 23 11 33 -10 10 -8 16 5 29 14 14 17 15 17 3 0 -13 2 -13 10 0
5 8 7 27 5 42 -4 22 -2 26 10 22 13 -5 13 -9 3 -23 -11 -14 -11 -14 3 -4 9 7
20 9 24 5 5 -4 5 -1 1 6 -8 14 0 32 16 32 7 0 6 -5 -1 -14z m3121 -38 c-14
-14 -42 -20 -42 -8 0 5 8 11 18 13 31 8 36 7 24 -5z m-3132 -41 c-15 -5 -20
-11 -12 -14 6 -3 12 -9 12 -15 0 -6 -6 -8 -13 -5 -8 3 -14 -1 -14 -9 0 -8 4
-14 9 -14 4 0 8 -4 8 -8 0 -5 -7 -9 -15 -9 -8 0 -11 5 -8 10 4 6 1 7 -6 3 -9
-6 -9 -12 3 -25 20 -22 21 -38 2 -22 -9 8 -16 8 -20 2 -8 -12 4 -19 27 -16 10
2 14 -1 11 -7 -5 -7 -2 -8 5 -3 10 6 11 3 2 -13 -10 -19 -9 -20 16 -16 22 4
24 3 14 -10 -7 -8 -10 -20 -7 -25 4 -5 2 -12 -4 -16 -9 -6 -14 8 -11 28 1 5
-3 6 -9 2 -6 -3 -8 -11 -5 -16 3 -5 -1 -6 -9 -3 -9 3 -16 10 -16 16 0 5 4 7 9
3 6 -3 9 6 8 19 -1 14 -5 26 -9 26 -25 1 -28 -1 -22 -12 4 -7 3 -8 -5 -4 -6 4
-9 12 -6 17 4 5 0 9 -7 9 -8 0 -7 5 4 16 12 13 14 23 7 41 -6 16 -5 22 1 18
17 -11 32 5 20 20 -9 10 -6 16 10 25 13 7 19 18 16 26 -5 12 -2 12 16 3 l22
-12 -24 -10z m67 9 c-2 -6 2 -17 10 -24 7 -8 11 -18 8 -23 -4 -5 -1 -9 6 -9 6
0 0 -9 -14 -20 -25 -20 -63 -18 -51 2 4 6 10 5 15 -3 7 -12 10 -12 21 0 11 12
10 12 -2 6 -12 -7 -13 -6 -4 6 9 12 10 21 5 45 0 4 -7 1 -14 -5 -8 -6 -18 -7
-23 -3 -4 4 -3 0 4 -10 9 -11 10 -18 2 -23 -5 -3 -10 -1 -10 5 0 6 -5 8 -11 4
-6 -3 -7 -9 -3 -13 5 -3 10 -13 11 -21 3 -17 -33 -25 -43 -9 -3 5 0 8 8 7 7
-2 13 4 13 12 0 8 4 21 8 28 5 6 5 17 1 24 -4 6 -3 8 3 5 6 -4 15 5 21 18 8
16 17 23 27 19 9 -4 14 -11 12 -18z m-212 -11 c-3 -29 -12 -42 -22 -31 -4 4
-1 11 6 15 9 6 10 11 2 15 -12 8 -6 26 9 26 4 0 7 -11 5 -25z m201 -30 c-1 -8
-5 -17 -8 -21 -5 -4 -4 16 1 34 3 9 9 -1 7 -13z m3014 -35 c0 -5 -5 -10 -11
-10 -5 0 -7 -4 -4 -10 3 -5 -6 -21 -20 -34 -17 -16 -22 -27 -15 -31 6 -4 9
-14 5 -23 -3 -8 0 -19 7 -24 10 -7 9 -9 -2 -5 -8 2 -15 11 -15 20 0 9 -5 16
-10 14 -6 -1 -9 -5 -7 -9 7 -23 6 -31 -8 -36 -8 -2 -12 -1 -8 3 4 4 3 15 -2
25 -6 12 -4 21 8 33 27 25 41 44 54 72 11 25 28 34 28 15z m30 6 c0 -2 3 -12
6 -20 4 -12 2 -15 -9 -10 -29 11 -27 -15 3 -45 26 -26 29 -34 20 -51 -6 -11
-8 -25 -5 -30 6 -9 -11 -23 -34 -27 -18 -2 -31 -23 -24 -39 8 -21 -15 -26 -41
-9 -14 9 -30 14 -36 10 -6 -4 -22 1 -35 9 -15 10 -25 12 -25 6 0 -6 -5 -8 -10
-5 -13 8 20 65 38 65 7 0 10 4 7 10 -4 6 1 7 11 3 12 -4 14 -8 5 -11 -8 -3 -7
-8 6 -19 10 -8 12 -11 4 -7 -9 5 -12 3 -7 -5 4 -6 12 -8 18 -5 7 5 9 1 5 -9
-3 -9 -1 -19 5 -23 7 -4 8 -3 4 4 -4 7 -2 12 3 12 6 0 11 -6 11 -14 0 -8 7
-16 15 -20 13 -4 12 -1 -2 20 -16 24 -15 25 3 22 10 -2 19 3 20 10 3 25 5 27
14 12 7 -11 10 -11 10 -2 0 7 5 10 10 7 6 -3 10 -1 10 5 0 7 -7 10 -15 6 -17
-6 -19 2 -5 24 9 13 10 13 10 0 0 -11 4 -10 12 4 9 16 7 23 -11 37 -22 18 -51
16 -51 -3 0 -6 6 -5 15 2 9 8 15 9 15 2 0 -18 -20 -24 -36 -11 -13 10 -12 14
4 25 11 7 25 27 32 44 7 16 16 30 21 30 5 0 9 -2 9 -4z m-2993 -17 c6 -6 9
-18 6 -25 -4 -10 0 -12 13 -8 14 4 15 3 6 -4 -11 -7 -11 -10 2 -15 9 -4 15
-12 14 -19 -2 -7 3 -12 10 -10 8 1 11 -2 7 -8 -3 -5 -2 -10 3 -10 5 0 12 -9
15 -21 3 -12 10 -18 16 -15 5 4 13 1 17 -5 4 -8 3 -9 -4 -5 -7 4 -12 2 -12 -3
0 -6 5 -11 11 -11 6 0 9 -7 6 -15 -4 -8 -2 -17 3 -20 6 -4 10 -1 10 4 0 19 14
12 58 -30 28 -26 41 -46 38 -56 -4 -9 -1 -13 6 -10 7 2 12 10 10 17 -3 11 0
11 12 1 9 -7 13 -18 10 -23 -4 -6 2 -8 15 -3 20 6 26 -2 22 -28 -1 -5 8 -6 19
-2 11 4 20 2 20 -4 0 -6 7 -11 15 -11 8 0 15 -5 15 -11 0 -5 5 -7 12 -3 7 5 8
3 3 -6 -6 -10 -4 -12 8 -7 16 6 41 -15 30 -26 -3 -4 -1 -7 5 -7 7 0 12 6 13
13 0 9 2 9 6 -1 2 -6 8 -10 13 -7 5 3 14 0 22 -7 7 -7 22 -14 32 -16 10 -2 25
-10 33 -18 8 -8 18 -12 23 -9 5 3 8 -4 7 -15 -1 -11 -5 -20 -10 -20 -4 0 -6
-4 -3 -9 3 -5 0 -14 -8 -20 -11 -9 -15 -9 -19 1 -4 8 -8 9 -14 3 -8 -10 -43
-19 -43 -11 0 17 14 35 23 29 15 -9 64 -14 52 -5 -15 11 -17 32 -3 32 7 0 2 7
-10 16 -13 9 -26 13 -29 10 -3 -3 -12 -1 -20 5 -9 9 -13 8 -13 0 0 -6 5 -11
12 -11 15 0 1 -13 -17 -16 -17 -3 -18 1 -6 25 8 14 5 17 -15 19 -45 3 -53 5
-49 12 6 9 -27 6 -45 -5 -13 -8 -13 -6 0 10 8 10 10 16 4 12 -6 -3 -11 0 -11
8 0 8 5 11 10 8 6 -3 7 -1 3 6 -4 6 -11 9 -16 6 -4 -3 -10 -2 -13 2 -2 5 -2 3
-1 -4 6 -25 -17 -23 -40 2 -22 24 -38 31 -71 34 -5 1 -3 6 5 12 13 9 13 10 -2
6 -26 -9 -69 37 -64 68 3 15 1 23 -5 20 -5 -4 -7 -10 -4 -15 3 -4 -2 -11 -10
-14 -13 -5 -14 -2 -4 17 10 18 7 17 -15 -6 -14 -15 -31 -25 -37 -21 -8 4 -7 9
2 15 7 4 17 5 21 3 7 -4 5 27 -2 46 -2 3 -2 9 -1 13 1 5 -3 6 -9 2 -5 -3 -7
-18 -4 -32 5 -17 3 -24 -4 -19 -6 3 -13 0 -15 -6 -4 -9 -6 -10 -6 -1 -1 6 3
14 9 18 5 3 7 12 3 21 -5 12 -7 12 -20 -3 -13 -17 -13 -16 -3 4 5 12 15 25 20
28 6 3 10 11 10 17 0 5 -8 2 -17 -9 -10 -10 -13 -12 -8 -4 8 12 7 13 -5 7 -8
-4 -6 0 4 8 11 9 14 16 7 16 -7 0 -10 4 -6 9 3 5 0 13 -6 17 -8 4 -9 3 -5 -5
5 -7 2 -10 -5 -9 -7 2 -13 -2 -14 -9 0 -6 -4 -15 -9 -20 -6 -5 -6 -2 -1 7 8
13 7 13 -11 0 -18 -14 -18 -13 1 10 l20 25 -22 -19 c-13 -10 -21 -22 -18 -25
2 -4 -6 -13 -18 -21 -19 -11 -18 -8 7 26 l28 39 -35 -37 c-35 -37 -59 -49 -54
-27 1 6 -6 13 -16 14 -14 3 -16 0 -7 -10 8 -9 6 -14 -5 -19 -9 -3 -13 -2 -10
4 3 6 -1 13 -10 16 -14 6 -14 9 -3 16 10 8 10 9 -2 5 -8 -2 -14 -10 -12 -16 2
-13 0 -13 -23 -5 -13 6 -14 9 -3 16 10 8 9 9 -4 4 -12 -4 -16 0 -12 12 3 9 -2
6 -10 -8 -8 -14 -15 -21 -16 -15 0 5 -5 4 -12 -3 -8 -8 -8 -15 2 -27 15 -18 0
-20 -19 -2 -11 10 -11 8 0 -10 11 -18 16 -20 29 -10 8 7 19 18 23 25 4 6 13
12 19 12 9 0 9 -3 1 -11 -9 -9 -9 -16 0 -31 10 -15 9 -21 -3 -29 -13 -9 -12
-10 3 -5 19 6 24 -9 6 -20 -17 -10 -34 13 -21 29 16 19 4 29 -20 16 -16 -9
-25 -6 -44 12 -20 19 -22 24 -8 33 17 13 27 73 13 81 -5 4 -7 10 -4 15 10 16
-23 32 -42 21 -11 -6 -13 -11 -5 -11 7 0 10 -5 6 -11 -5 -8 -10 -6 -16 6 -7
12 -17 15 -36 10 -27 -6 -26 -5 8 29 34 34 35 34 52 15 19 -23 30 -25 22 -4
-4 8 -1 15 5 15 6 0 11 -7 11 -15 0 -8 9 -20 20 -27 22 -14 27 -30 9 -25 -21
4 -20 -22 0 -33 16 -8 21 -8 21 2 0 7 7 2 16 -10 9 -14 22 -21 32 -18 10 3 24
1 32 -4 18 -11 41 6 34 25 -3 7 -1 16 5 20 8 4 8 12 0 27 -9 16 -8 19 2 13 7
-5 10 -4 5 3 -4 6 -13 9 -20 6 -17 -6 -31 12 -16 21 5 3 10 0 10 -7 0 -8 4 -7
11 4 5 9 15 15 23 12 7 -3 19 2 26 11 15 18 22 19 37 4z m3030 -19 c-2 -26
-27 -34 -46 -15 -10 10 -11 15 -3 15 7 0 12 -6 12 -12 0 -7 7 -2 16 10 19 27
23 28 21 2z m-3117 -44 c0 -3 -4 -8 -10 -11 -5 -3 -10 -1 -10 4 0 6 5 11 10
11 6 0 10 -2 10 -4z m3080 -27 c0 -5 -3 -8 -7 -8 -18 3 -36 -2 -30 -7 3 -4 1
-16 -5 -28 -7 -11 -12 -24 -11 -27 1 -3 -8 -5 -20 -4 -24 2 -31 29 -7 31 30 2
32 4 20 19 -10 12 -10 15 3 15 8 0 20 7 27 15 12 15 30 12 30 -6z m-3240 -19
c0 -5 -4 -10 -10 -10 -5 0 -10 5 -10 10 0 6 5 10 10 10 6 0 10 -4 10 -10z
m292 -33 c-6 -10 -9 -57 -3 -76 1 -2 9 3 19 10 15 13 16 12 3 -4 -12 -15 -11
-20 4 -37 12 -13 23 -17 34 -12 24 12 33 9 74 -29 25 -24 35 -41 31 -52 -4
-13 -9 -14 -19 -4 -15 14 -9 31 7 21 7 -4 8 -2 4 5 -4 6 -12 9 -17 6 -5 -4 -9
0 -9 7 0 8 -5 6 -11 -4 -5 -10 -15 -18 -21 -18 -6 0 -3 9 8 21 14 15 15 20 4
17 -10 -2 -14 4 -12 17 2 19 2 19 -9 1 -8 -14 -13 -15 -19 -6 -4 7 -13 9 -19
6 -6 -4 -9 -11 -6 -16 3 -5 -4 -8 -15 -7 -10 1 -22 7 -24 13 -3 7 -13 11 -23
10 -20 -3 -16 -19 5 -23 22 -3 22 -6 -4 -37 -14 -15 -28 -25 -31 -22 -4 3 1
12 10 19 11 8 14 17 7 27 -8 12 -11 12 -27 -2 -23 -21 -49 -18 -67 8 -12 15
-17 17 -27 7 -16 -16 -29 -17 -29 -1 0 6 3 8 7 5 3 -4 13 3 21 14 l15 22 14
-27 c15 -29 28 -33 36 -11 7 16 -8 29 -23 20 -5 -3 -10 -1 -10 4 0 15 33 14
48 -1 9 -9 15 -9 24 0 7 7 20 12 29 12 10 0 21 5 25 11 4 8 -1 9 -17 4 -19 -5
-21 -4 -9 5 12 9 11 10 -7 5 -14 -4 -23 -2 -23 4 0 6 3 10 8 10 21 -4 28 4 28
29 0 17 -5 29 -13 29 -9 0 -10 -4 -3 -11 14 -14 13 -29 -2 -19 -17 10 -38 13
-39 5 0 -4 -2 -15 -4 -25 -2 -9 0 -15 5 -12 4 3 11 -2 14 -11 5 -13 2 -14 -11
-9 -10 4 -26 8 -35 9 -10 0 -20 6 -23 14 -3 9 1 12 13 8 13 -5 22 1 30 19 7
15 16 24 21 21 5 -3 12 1 15 10 4 9 9 14 13 11 9 -10 34 14 26 26 -3 6 -1 7 6
3 7 -5 9 -12 3 -19z m-242 -32 c-7 -8 -16 -12 -21 -9 -16 9 -10 20 12 21 17 2
18 -1 9 -12z m64 -9 c-4 -9 3 -13 20 -13 14 0 24 2 22 6 -2 3 7 7 20 7 15 1
23 -3 21 -9 -2 -7 -12 -12 -23 -12 -20 0 -21 -6 -8 -39 5 -13 4 -17 -3 -13 -6
4 -16 0 -23 -8 -13 -16 -35 -21 -26 -6 3 5 -1 14 -9 21 -19 16 -19 27 0 27 9
0 14 -6 11 -14 -3 -8 -1 -11 4 -8 6 3 10 0 10 -7 0 -8 5 -6 11 5 6 10 8 21 5
24 -3 4 -6 1 -6 -6 0 -7 -9 -3 -21 10 -11 13 -17 18 -14 11 6 -11 3 -12 -14
-2 -12 6 -19 16 -15 22 4 7 9 6 15 -3 7 -11 9 -10 9 4 0 9 4 17 10 17 5 0 7
-6 4 -14z m2922 5 c-7 -10 18 -34 26 -26 7 8 58 -16 58 -27 0 -4 -7 -8 -16 -8
-8 0 -12 5 -9 10 3 6 1 10 -4 10 -6 0 -11 -4 -11 -10 0 -5 -5 -10 -11 -10 -8
0 -8 5 1 15 9 10 9 15 1 15 -6 0 -11 -5 -11 -12 0 -7 -7 -5 -18 5 -12 11 -22
13 -32 7 -10 -7 -11 -10 -2 -10 23 0 27 -2 44 -17 9 -8 22 -12 29 -7 9 5 10 2
5 -11 -5 -15 -4 -16 9 -5 9 7 18 11 20 8 11 -11 -25 -30 -37 -21 -17 13 -60
14 -52 2 3 -5 2 -9 -3 -8 -4 1 -10 1 -13 -1 -3 -1 -16 -3 -29 -6 -21 -4 -22
-2 -10 12 8 10 15 12 17 5 2 -7 9 -5 19 5 9 8 22 13 30 10 8 -3 11 -1 8 5 -4
5 -16 7 -27 3 -15 -4 -18 -3 -13 6 5 8 4 11 -3 6 -17 -10 -8 17 13 42 20 22
31 30 21 13z m-2776 -31 c0 -4 -8 -7 -17 -5 -10 2 -20 4 -23 4 -3 1 2 5 10 10
15 10 30 6 30 -9z m2730 -34 c8 -11 10 -17 3 -13 -6 4 -14 3 -18 -3 -3 -5 -15
-15 -25 -20 -17 -9 -19 -8 -13 7 3 10 3 15 -2 11 -4 -4 -9 -18 -10 -32 -3 -24
15 -30 32 -11 4 4 2 5 -4 1 -7 -4 -13 -3 -13 3 0 9 57 8 66 -2 3 -2 2 -11 -1
-20 -6 -14 -48 -17 -62 -4 -3 3 -13 -3 -23 -15 -11 -15 -19 -18 -24 -10 -4 8
0 12 11 12 14 0 15 2 4 9 -9 6 -10 11 -3 15 6 4 9 13 5 21 -6 18 15 47 28 39
5 -3 9 1 9 8 0 9 3 9 10 -2 8 -12 10 -10 10 9 0 13 1 22 3 20 1 -2 9 -13 17
-23z m-2750 -20 c-7 -7 -13 -7 -20 0 -6 6 -3 10 10 10 13 0 16 -4 10 -10z
m-40 -20 c0 -3 -4 -8 -10 -11 -5 -3 -10 -1 -10 4 0 6 5 11 10 11 6 0 10 -2 10
-4z m173 -12 c4 -1 10 -2 13 -3 4 0 1 -7 -5 -15 -17 -20 5 -32 26 -14 9 7 14
8 10 2 -4 -7 0 -17 8 -24 17 -14 20 -30 4 -30 -5 0 -7 4 -4 10 4 6 -1 7 -11 3
-12 -4 -14 -8 -5 -11 9 -3 8 -9 -5 -23 -10 -11 -12 -19 -6 -19 7 0 12 -4 12
-10 0 -16 -17 -12 -24 6 -4 9 -2 22 4 29 13 16 -11 38 -33 29 -10 -3 -20 3
-27 17 -11 19 -10 21 4 16 39 -16 49 -17 23 -2 -21 12 -26 20 -18 29 6 7 7 17
3 21 -4 5 0 4 8 -1 8 -5 18 -9 23 -10z m2519 -22 c-9 -7 -16 -15 -14 -17 7
-14 0 -25 -15 -25 -17 1 -17 1 0 14 16 13 16 14 1 20 -10 4 -22 2 -28 -4 -7
-7 -6 -10 3 -10 7 0 9 -4 6 -10 -3 -5 -11 -10 -16 -10 -6 0 -7 5 -3 12 4 7 3
8 -5 4 -15 -10 -3 -29 15 -22 8 3 14 2 14 -3 0 -5 7 -8 16 -7 9 0 19 -6 22
-14 5 -13 3 -13 -11 -1 -10 7 -17 9 -17 4 0 -6 -15 -10 -32 -10 -18 0 -40 -3
-49 -7 -10 -4 -16 -2 -16 8 0 8 7 14 16 13 17 -2 21 3 21 31 0 14 -2 15 -10 2
-6 -9 -5 -17 2 -21 6 -4 0 -7 -13 -7 -29 0 -50 -5 -66 -15 -8 -5 -13 -4 -13 3
0 6 14 13 30 17 17 3 30 10 30 15 0 5 4 7 9 4 5 -3 12 1 15 10 3 8 10 13 16 9
5 -3 23 4 39 16 16 12 34 18 40 14 6 -3 11 -3 10 2 -3 20 2 27 11 13 7 -11 5
-19 -8 -28z m195 11 c-14 -14 -19 -15 -29 -4 -9 9 -9 12 -1 7 6 -3 14 -2 18 4
3 5 11 10 18 10 6 0 4 -7 -6 -17z m-2771 -20 c-10 -10 -19 5 -10 18 6 11 8 11
12 0 2 -7 1 -15 -2 -18z m210 -30 c15 -21 12 -55 -6 -61 -9 -3 -10 0 -4 9 7
12 5 12 -9 0 -9 -7 -17 -9 -17 -3 0 5 10 17 23 26 18 12 18 14 3 9 -15 -5 -18
-3 -14 9 4 9 0 15 -8 15 -8 0 -14 -4 -14 -9 0 -5 -4 -7 -9 -4 -5 3 -12 -1 -15
-9 -5 -13 -2 -14 17 -4 19 11 20 10 10 -3 -7 -8 -9 -18 -5 -23 4 -4 -2 -5 -13
-1 -11 3 -27 1 -35 -4 -12 -8 -11 -10 5 -8 37 3 56 -2 50 -12 -5 -8 -11 -7
-20 0 -17 14 -36 5 -29 -14 3 -7 -2 -13 -9 -13 -18 0 -17 59 1 65 7 2 19 17
27 32 17 32 48 34 71 3z m-206 7 c0 -5 -2 -10 -4 -10 -3 0 -8 5 -11 10 -3 6
-1 10 4 10 6 0 11 -4 11 -10z m2725 1 c6 -11 -21 -41 -37 -41 -6 0 -4 8 5 18
10 10 14 22 10 25 -3 4 -1 7 5 7 6 0 13 -4 17 -9z m-125 -23 c0 -15 -18 -17
-30 -3 -9 11 -8 14 9 12 12 -1 21 -5 21 -9z m-2336 -22 c-5 -28 11 -44 20 -21
5 13 10 14 28 4 13 -7 24 -12 26 -11 1 1 7 2 12 2 17 0 11 -14 -11 -28 -17
-11 -24 -11 -33 -1 -8 9 -8 10 0 6 7 -4 18 1 25 11 11 14 11 15 -1 5 -11 -10
-16 -9 -27 5 -8 9 -12 11 -8 5 7 -15 -11 -53 -25 -53 -6 0 -9 6 -7 13 1 7 -10
12 -28 13 -48 2 -55 3 -55 14 0 5 6 7 13 4 14 -5 35 13 36 31 1 6 5 10 10 10
5 0 13 3 17 8 12 11 13 9 8 -17z m-234 -6 c-6 -11 -13 -20 -15 -20 -2 0 -3 9
-2 20 1 11 7 20 14 20 11 0 11 -5 3 -20z m2397 -5 c-9 -9 -14 -10 -20 -1 -5 6
-6 2 -3 -10 7 -24 -16 -60 -32 -50 -7 4 -12 12 -12 18 0 6 7 5 17 -3 13 -11
13 -8 -2 13 -11 15 -26 25 -32 23 -7 -2 -13 0 -13 5 0 6 12 10 26 10 14 0 23
-4 20 -9 -3 -5 2 -15 12 -22 15 -12 16 -12 5 2 -15 18 -3 34 27 36 16 1 17 -1
7 -12z m-85 -20 c3 0 9 -3 12 -6 7 -6 -48 -33 -60 -29 -4 1 -10 -4 -14 -10 -4
-7 -13 -9 -19 -5 -9 5 -7 11 6 22 10 8 12 12 6 8 -7 -3 -13 -1 -13 4 0 6 5 12
10 12 6 1 14 2 19 3 5 0 13 4 17 8 4 4 12 4 18 0 6 -4 14 -7 18 -7z m94 -12
c-10 -10 -19 5 -10 18 6 11 8 11 12 0 2 -7 1 -15 -2 -18z m49 18 c3 -6 -3 -9
-14 -8 -11 0 -17 5 -15 9 7 11 22 10 29 -1z m-2118 -34 c-14 -31 -36 -42 -51
-26 -6 7 -6 10 -1 7 6 -3 21 7 35 22 30 33 34 32 17 -3z m-166 -8 c21 -18 21
-20 4 -13 -11 4 -28 7 -37 8 -19 0 -23 8 -11 19 10 11 19 8 44 -14z m255 -1
c2 -18 -22 -32 -31 -18 -10 16 -65 -10 -65 -31 0 -10 -4 -19 -10 -19 -16 0
-11 29 8 48 10 10 26 18 35 16 9 -1 21 4 28 12 15 18 31 14 35 -8z m1794 15
c0 -17 -19 -37 -27 -29 -4 5 -2 11 5 13 6 3 10 9 6 14 -3 5 0 9 5 9 6 0 11 -3
11 -7z m-1687 -20 c6 -4 17 -8 22 -9 6 -1 28 -7 50 -13 22 -6 45 -11 50 -12 6
0 15 -4 20 -9 6 -4 18 -6 28 -5 9 2 15 0 12 -5 -3 -4 5 -8 18 -8 26 0 67 -9
75 -17 3 -3 2 -8 -2 -12 -4 -4 -11 -2 -15 6 -7 10 -10 9 -14 -3 -4 -9 -12 -16
-18 -16 -9 0 -9 3 0 14 9 10 8 15 -3 19 -9 4 -18 2 -22 -4 -4 -6 -13 -4 -25 7
-18 16 -25 11 -20 -18 0 -5 -4 -8 -10 -8 -6 0 -8 7 -5 17 4 10 3 14 -1 9 -4
-4 -8 -17 -8 -29 0 -11 -5 -22 -11 -24 -7 -2 -10 7 -8 26 4 31 -20 51 -30 25
-3 -9 -14 -14 -24 -12 -25 4 -52 -19 -52 -45 0 -15 -3 -18 -11 -10 -8 8 -8 17
1 32 13 25 4 45 -16 37 -23 -9 -46 4 -34 19 7 8 7 15 1 19 -7 5 -8 27 -2 43 2
4 42 -6 54 -14z m1653 0 c-1 -13 7 -18 26 -18 16 -1 34 -7 40 -14 11 -10 7
-12 -22 -7 -68 10 -75 13 -78 32 -3 16 -1 17 7 4 9 -13 11 -13 11 3 0 9 4 17
9 17 5 0 8 -8 7 -17z m-16 -45 c0 7 4 10 10 7 6 -4 5 -11 -3 -19 -6 -8 -15
-12 -20 -9 -4 2 -10 -3 -13 -11 -3 -9 -11 -13 -17 -9 -6 4 -3 11 8 20 11 7 15
13 11 13 -4 0 -4 5 0 11 4 8 9 7 15 -2 7 -11 9 -11 9 -1z m-1369 -62 c5 3 9
-3 9 -12 0 -13 -3 -15 -11 -7 -6 6 -19 9 -28 5 -14 -5 -14 -4 -1 12 8 11 16
14 18 7 2 -6 8 -9 13 -5z m1049 4 c0 -5 -4 -10 -10 -10 -5 0 -10 5 -10 10 0 6
5 10 10 10 6 0 10 -4 10 -10z m-774 -35 c-1 -25 -10 -32 -20 -16 -7 11 3 41
14 41 4 0 7 -11 6 -25z m254 -22 c9 -8 10 -13 3 -13 -15 0 -43 28 -43 43 1 8
5 6 13 -3 7 -8 19 -21 27 -27z"/>
<path d="M2067 1276 c-4 -10 -1 -13 8 -9 8 3 12 9 9 14 -7 12 -11 11 -17 -5z"/>
<path d="M4959 1033 c-8 -9 -9 -14 -3 -10 7 4 15 0 18 -9 3 -8 10 -12 16 -9 5
3 10 1 10 -6 0 -7 2 -10 5 -7 6 6 -18 58 -26 58 -4 0 -13 -8 -20 -17z"/>
<path d="M2094 1169 c-13 -15 -19 -16 -26 -7 -5 9 -8 10 -8 1 0 -6 4 -14 8
-17 7 -4 8 -40 2 -56 -1 -3 -2 -9 -1 -14 1 -4 -4 -15 -11 -24 -8 -10 -9 -13
-1 -9 6 4 13 1 16 -5 2 -8 14 -1 31 19 14 17 34 30 44 28 25 -4 35 5 21 21 -6
8 -8 14 -3 14 5 0 -2 7 -14 16 -13 9 -21 22 -18 29 8 22 -21 25 -40 4z m53
-46 c23 -30 23 -32 5 -28 -12 2 -29 -6 -43 -21 -12 -13 -27 -24 -33 -24 -6 0
-5 4 3 9 9 6 10 11 2 15 -6 4 -8 13 -4 19 4 7 7 21 8 33 0 28 27 62 34 43 2
-8 15 -28 28 -46z"/>
<path d="M2094 1148 c-4 -7 -4 -10 1 -6 7 7 35 -14 35 -26 0 -9 -24 -2 -33 9
-5 6 -7 3 -3 -7 3 -10 1 -20 -5 -23 -5 -4 -7 -11 -3 -16 4 -6 15 -2 28 10 12
12 26 18 31 14 4 -5 3 1 -3 13 -17 33 -39 48 -48 32z m26 -42 c0 -2 -8 -10
-17 -17 -16 -13 -17 -12 -4 4 13 16 21 21 21 13z"/>
<path d="M1822 1154 c-14 -16 -5 -18 17 -5 7 5 9 11 5 14 -5 3 -15 -1 -22 -9z"/>
<path d="M1887 1129 c7 -7 15 -10 18 -7 3 3 -2 9 -12 12 -14 6 -15 5 -6 -5z"/>
<path d="M1910 1059 c0 -5 5 -7 10 -4 6 3 10 8 10 11 0 2 -4 4 -10 4 -5 0 -10
-5 -10 -11z"/>
<path d="M2259 983 c-12 -16 -12 -17 2 -6 9 7 20 9 24 5 5 -4 5 -1 1 6 -9 16
-11 15 -27 -5z"/>
<path d="M2306 948 c1 -13 3 -25 3 -28 1 -3 9 -10 19 -16 28 -18 26 19 -2 45
l-23 21 3 -22z m29 -19 c11 -16 1 -19 -13 -3 -7 8 -8 14 -3 14 5 0 13 -5 16
-11z"/>
<path d="M2379 908 c-6 -21 -5 -37 2 -33 4 3 23 -8 40 -25 18 -16 33 -30 33
-30 1 0 2 8 2 19 0 10 -7 18 -15 17 -9 -1 -16 6 -16 14 0 8 -9 15 -20 15 -11
0 -19 6 -17 13 2 10 -6 19 -9 10z"/>
<path d="M2506 809 c2 -4 13 -7 24 -6 23 2 17 10 -10 12 -10 1 -17 -2 -14 -6z"/>
<path d="M2186 932 c-3 -6 -1 -14 5 -17 15 -10 25 3 12 16 -7 7 -13 7 -17 1z"/>
<path d="M2105 889 c-11 -16 -1 -19 13 -3 7 8 8 14 3 14 -5 0 -13 -5 -16 -11z"/>
<path d="M4859 873 c-12 -16 -12 -17 2 -6 9 7 20 9 24 5 5 -4 5 -1 1 6 -9 16
-11 15 -27 -5z"/>
<path d="M2235 879 c-3 -4 2 -6 10 -5 21 3 28 13 10 13 -9 0 -18 -4 -20 -8z"/>
<path d="M2290 841 c0 -7 -5 -9 -12 -5 -7 5 -8 3 -3 -5 5 -9 10 -10 18 -2 6 6
8 14 4 18 -4 3 -7 1 -7 -6z"/>
<path d="M2435 767 c-15 -12 -16 -14 -1 -14 9 0 16 5 16 10 0 6 9 2 19 -7 15
-14 21 -15 27 -4 4 7 3 10 -1 5 -5 -4 -16 0 -25 8 -14 12 -19 13 -35 2z"/>
<path d="M4515 760 c-4 -6 -11 -8 -16 -5 -5 4 -6 -2 -2 -11 4 -11 8 -13 11 -6
2 7 8 10 12 7 5 -3 11 -1 14 4 4 5 2 12 -3 15 -5 4 -12 2 -16 -4z"/>
<path d="M2640 730 c-9 -6 -10 -10 -3 -10 6 0 15 5 18 10 8 12 4 12 -15 0z"/>
<path d="M2736 714 c-3 -9 -5 -17 -4 -18 2 -1 13 -10 25 -20 13 -10 39 -20 60
-22 25 -2 32 0 23 7 -8 5 -12 9 -7 10 25 5 34 4 49 -3 9 -4 19 -4 22 0 5 9 -2
11 -49 14 -14 1 -25 6 -25 11 0 5 -7 7 -15 3 -8 -3 -15 0 -15 7 -1 7 -6 2 -13
-11 -7 -12 -16 -20 -20 -16 -4 4 -2 13 4 20 7 8 7 14 -1 19 -5 3 -10 3 -10 -2
0 -4 -4 -2 -9 5 -6 11 -10 10 -15 -4z m34 -10 c0 -8 -19 -13 -24 -6 -3 5 1 9
9 9 8 0 15 -2 15 -3z m57 -29 c4 -4 2 -5 -4 -1 -7 4 -13 2 -13 -3 0 -6 -4 -11
-10 -11 -5 0 -10 6 -10 14 0 15 24 16 37 1z"/>
<path d="M1990 1740 c0 -5 5 -10 11 -10 5 0 7 5 4 10 -3 6 -8 10 -11 10 -2 0
-4 -4 -4 -10z"/>
<path d="M5270 1719 c0 -5 5 -7 10 -4 6 3 10 8 10 11 0 2 -4 4 -10 4 -5 0 -10
-5 -10 -11z"/>
<path d="M1986 1680 c5 -8 9 -21 10 -28 2 -8 5 -17 8 -20 4 -3 5 4 3 16 -2 12
-9 28 -17 35 -10 10 -11 9 -4 -3z"/>
<path d="M5170 1660 c0 -5 5 -10 11 -10 5 0 7 5 4 10 -3 6 -8 10 -11 10 -2 0
-4 -4 -4 -10z"/>
<path d="M1655 1631 c-3 -5 -2 -12 3 -15 5 -3 9 1 9 9 0 17 -3 19 -12 6z"/>
<path d="M1870 1622 c0 -5 7 -9 15 -9 8 0 12 4 9 9 -3 4 -9 8 -15 8 -5 0 -9
-4 -9 -8z"/>
<path d="M1926 1601 c-12 -13 -14 -21 -6 -26 6 -4 14 -4 17 -1 4 3 0 6 -7 6
-9 0 -8 6 5 20 10 11 16 20 13 20 -3 0 -13 -9 -22 -19z"/>
<path d="M2000 1606 c7 -7 13 -7 20 0 6 6 3 10 -10 10 -13 0 -16 -4 -10 -10z"/>
<path d="M1879 1573 c-13 -16 -12 -17 4 -4 9 7 17 15 17 17 0 8 -8 3 -21 -13z"/>
<path d="M1850 1561 c0 -6 4 -13 10 -16 6 -3 7 1 4 9 -7 18 -14 21 -14 7z"/>
<path d="M1959 1553 c-13 -17 -13 -17 6 -3 11 8 22 16 24 17 2 2 0 3 -6 3 -6
0 -17 -8 -24 -17z"/>
<path d="M5430 1561 c0 -6 4 -13 10 -16 6 -3 7 1 4 9 -7 18 -14 21 -14 7z"/>
<path d="M5510 1561 c0 -6 4 -13 10 -16 6 -3 7 1 4 9 -7 18 -14 21 -14 7z"/>
<path d="M1706 1542 c-3 -5 1 -9 9 -9 8 0 15 4 15 9 0 4 -4 8 -9 8 -6 0 -12
-4 -15 -8z"/>
<path d="M1876 1535 c-9 -26 -7 -32 5 -12 6 10 9 21 6 23 -2 3 -7 -2 -11 -11z"/>
<path d="M5186 1538 c3 -5 0 -17 -8 -26 -12 -15 -11 -16 5 -3 14 11 20 11 35
0 16 -13 16 -13 -1 7 -9 11 -15 23 -12 26 3 2 -2 5 -10 5 -8 0 -12 -4 -9 -9z"/>
<path d="M5232 1531 c7 -9 13 -18 15 -20 1 -2 1 5 0 16 0 11 -7 20 -14 20 -10
0 -10 -4 -1 -16z"/>
<path d="M1795 1530 c-4 -6 -10 -8 -14 -6 -4 3 -8 -1 -8 -9 0 -10 4 -12 12 -5
7 5 14 8 17 5 2 -3 5 2 5 10 0 18 -3 19 -12 5z"/>
<path d="M1828 1533 c7 -3 16 -2 19 1 4 3 -2 6 -13 5 -11 0 -14 -3 -6 -6z"/>
<path d="M1944 1518 c10 -6 22 -6 26 -2 5 5 -3 10 -18 11 -22 1 -24 0 -8 -9z"/>
<path d="M1997 1519 c7 -7 15 -10 18 -7 3 3 -2 9 -12 12 -14 6 -15 5 -6 -5z"/>
<path d="M1913 1510 c2 -8 9 -14 15 -13 6 2 10 -6 9 -17 -1 -11 -7 -20 -14
-20 -7 0 -13 -5 -13 -10 0 -7 6 -7 19 -1 18 10 24 52 7 50 -5 0 -13 5 -18 13
-8 10 -9 10 -5 -2z"/>
<path d="M1495 1500 c-3 -5 -1 -10 4 -10 6 0 11 5 11 10 0 6 -2 10 -4 10 -3 0
-8 -4 -11 -10z"/>
<path d="M1970 1490 c-6 -11 -7 -20 -3 -20 4 -1 -5 -12 -22 -26 -17 -15 -21
-22 -10 -16 11 5 25 7 32 5 16 -6 27 17 15 29 -14 14 -4 38 14 31 8 -3 14 -3
14 0 0 16 -31 13 -40 -3z m10 -40 c0 -5 -5 -10 -11 -10 -5 0 -7 5 -4 10 3 6 8
10 11 10 2 0 4 -4 4 -10z"/>
<path d="M5265 1499 c-3 -4 2 -6 10 -5 21 3 28 13 10 13 -9 0 -18 -4 -20 -8z"/>
<path d="M1549 1483 c-13 -16 -12 -17 4 -4 9 7 17 15 17 17 0 8 -8 3 -21 -13z"/>
<path d="M1693 1485 c0 -8 4 -12 9 -9 5 3 6 10 3 15 -9 13 -12 11 -12 -6z"/>
<path d="M1876 1485 c23 -17 34 -19 34 -4 0 5 -4 8 -9 4 -5 -3 -12 -1 -16 5
-3 5 -11 10 -18 10 -6 0 -2 -7 9 -15z"/>
<path d="M5235 1491 c-3 -5 -2 -12 3 -15 5 -3 9 1 9 9 0 17 -3 19 -12 6z"/>
<path d="M1511 1467 c-13 -21 -12 -21 5 -5 10 10 16 20 13 22 -3 3 -11 -5 -18
-17z"/>
<path d="M1771 1474 c0 -11 3 -14 6 -6 3 7 2 16 -1 19 -3 4 -6 -2 -5 -13z"/>
<path d="M1834 1475 c-4 -8 -11 -12 -17 -8 -6 3 -7 1 -3 -6 4 -6 11 -9 16 -6
4 3 11 -1 14 -7 3 -7 3 -3 0 9 -4 18 -2 22 10 17 9 -3 16 -4 16 -1 0 13 -31
15 -36 2z"/>
<path d="M1395 1459 c-3 -4 2 -6 10 -5 21 3 28 13 10 13 -9 0 -18 -4 -20 -8z"/>
<path d="M1634 1430 c0 -22 5 -37 13 -37 7 0 9 5 5 11 -11 18 -12 40 -2 51 6
8 5 12 -3 12 -9 0 -13 -13 -13 -37z"/>
<path d="M5190 1460 c0 -5 5 -10 10 -10 6 0 10 5 10 10 0 6 -4 10 -10 10 -5 0
-10 -4 -10 -10z"/>
<path d="M5425 1460 c-3 -6 1 -7 9 -4 18 7 21 14 7 14 -6 0 -13 -4 -16 -10z"/>
<path d="M5575 1460 c-3 -5 -1 -10 4 -10 6 0 11 5 11 10 0 6 -2 10 -4 10 -3 0
-8 -4 -11 -10z"/>
<path d="M5619 1468 c-5 -18 -6 -38 -1 -34 7 8 12 36 6 36 -2 0 -4 -1 -5 -2z"/>
<path d="M1740 1453 c0 -19 21 -27 33 -13 9 10 9 11 -2 5 -8 -4 -17 -2 -22 6
-6 9 -9 10 -9 2z"/>
<path d="M1796 1447 c3 -10 9 -15 12 -12 3 3 0 11 -7 18 -10 9 -11 8 -5 -6z"/>
<path d="M1876 1445 c-3 -8 -1 -15 4 -15 6 0 10 7 10 15 0 8 -2 15 -4 15 -2 0
-6 -7 -10 -15z"/>
<path d="M1666 1442 c-3 -5 1 -9 9 -9 8 0 15 4 15 9 0 4 -4 8 -9 8 -6 0 -12
-4 -15 -8z"/>
<path d="M2006 1435 c4 -8 11 -15 16 -15 6 0 5 6 -2 15 -7 8 -14 15 -16 15 -2
0 -1 -7 2 -15z"/>
<path d="M5495 1440 c-3 -5 -1 -10 4 -10 6 0 11 5 11 10 0 6 -2 10 -4 10 -3 0
-8 -4 -11 -10z"/>
<path d="M5215 1431 c-3 -5 0 -13 6 -17 7 -4 9 -3 5 4 -3 5 0 13 6 15 9 4 10
6 1 6 -6 1 -14 -3 -18 -8z"/>
<path d="M1373 1409 c-2 -23 3 -25 10 -4 4 8 3 16 -1 19 -4 3 -9 -4 -9 -15z"/>
<path d="M1410 1419 c0 -5 5 -7 10 -4 6 3 10 8 10 11 0 2 -4 4 -10 4 -5 0 -10
-5 -10 -11z"/>
<path d="M1779 1428 c-1 -2 -3 -13 -4 -26 -2 -22 30 -51 43 -38 3 3 0 6 -7 6
-7 0 -9 4 -6 10 3 5 0 7 -7 5 -9 -4 -14 2 -15 15 -1 12 2 18 9 14 7 -4 8 -2 4
4 -7 11 -14 15 -17 10z"/>
<path d="M1817 1422 c-3 -4 0 -16 4 -27 9 -19 9 -19 5 2 -3 16 1 21 15 20 11
-1 19 -7 19 -14 0 -6 9 -11 19 -10 11 0 17 5 15 9 -3 4 0 8 5 8 6 0 11 5 11
12 0 6 -8 4 -19 -6 -13 -12 -20 -14 -23 -5 -5 14 -45 23 -51 11z"/>
<path d="M5194 1417 c5 -15 2 -17 -17 -12 -20 5 -20 5 -4 -6 23 -14 40 0 26
21 -9 12 -10 12 -5 -3z"/>
<path d="M5245 1419 c-4 -6 -5 -12 -2 -15 2 -3 7 2 10 11 7 17 1 20 -8 4z"/>
<path d="M5307 1413 c3 -7 6 -13 8 -13 2 0 5 6 8 13 3 8 -1 14 -8 14 -7 0 -11
-6 -8 -14z"/>
<path d="M1535 1409 c-4 -6 -5 -12 -2 -15 2 -3 7 2 10 11 7 17 1 20 -8 4z"/>
<path d="M1582 1405 c15 -16 20 -17 30 -6 11 11 10 13 0 7 -7 -4 -21 -2 -30 5
-15 12 -15 11 0 -6z"/>
<path d="M1722 1407 c10 -8 15 -17 11 -20 -3 -4 2 -9 11 -13 9 -3 14 -9 12
-13 -3 -4 5 -8 17 -8 19 -2 18 0 -6 16 -15 10 -24 20 -21 23 3 4 -5 11 -18 18
-20 10 -21 10 -6 -3z"/>
<path d="M1950 1409 c0 -5 5 -7 10 -4 6 3 10 8 10 11 0 2 -4 4 -10 4 -5 0 -10
-5 -10 -11z"/>
<path d="M1295 1400 c-3 -5 -1 -10 4 -10 6 0 11 5 11 10 0 6 -2 10 -4 10 -3 0
-8 -4 -11 -10z"/>
<path d="M1490 1406 c0 -2 7 -7 16 -10 8 -3 12 -2 9 4 -6 10 -25 14 -25 6z"/>
<path d="M1691 1394 c0 -11 3 -14 6 -6 3 7 2 16 -1 19 -3 4 -6 -2 -5 -13z"/>
<path d="M2027 1395 c7 -19 25 -15 31 6 3 11 2 11 -7 -1 -7 -10 -11 -11 -11
-2 0 6 -4 12 -10 12 -5 0 -7 -7 -3 -15z"/>
<path d="M5365 1397 c-14 -11 -15 -16 -5 -22 9 -6 11 -4 5 5 -6 9 -4 12 7 8 9
-4 15 0 15 8 0 17 1 17 -22 1z"/>
<path d="M5510 1400 c0 -5 5 -10 11 -10 5 0 7 5 4 10 -3 6 -8 10 -11 10 -2 0
-4 -4 -4 -10z"/>
<path d="M1550 1396 c0 -2 8 -10 18 -17 15 -13 16 -12 3 4 -13 16 -21 21 -21
13z"/>
<path d="M5217 1394 c-4 -4 -4 -11 -1 -15 7 -12 34 -11 34 1 0 5 -7 6 -17 3
-11 -4 -14 -3 -9 5 8 13 3 16 -7 6z"/>
<path d="M1466 1382 c-3 -5 1 -9 9 -9 8 0 15 4 15 9 0 4 -4 8 -9 8 -6 0 -12
-4 -15 -8z"/>
<path d="M1710 1381 c0 -6 4 -13 10 -16 6 -3 7 1 4 9 -7 18 -14 21 -14 7z"/>
<path d="M1836 1375 c-9 -26 -7 -32 5 -12 6 10 9 21 6 23 -2 3 -7 -2 -11 -11z"/>
<path d="M5310 1385 c0 -5 5 -17 10 -25 5 -8 10 -10 10 -5 0 6 -5 17 -10 25
-5 8 -10 11 -10 5z"/>
<path d="M5715 1381 c-3 -5 -2 -12 3 -15 5 -3 9 1 9 9 0 17 -3 19 -12 6z"/>
<path d="M1353 1367 c0 -8 6 -14 14 -14 9 0 10 4 2 14 -6 7 -12 13 -14 13 -1
0 -2 -6 -2 -13z"/>
<path d="M1533 1364 c0 -8 3 -12 5 -9 3 3 11 0 19 -7 7 -6 15 -9 17 -7 2 2 -6
12 -18 21 -18 13 -23 14 -23 2z"/>
<path d="M1868 1369 c-10 -5 -18 -15 -18 -22 0 -8 3 -9 8 -1 4 6 16 16 27 22
11 6 16 11 10 11 -5 0 -18 -4 -27 -10z"/>
<path d="M5261 1363 c-1 -13 -7 -22 -13 -20 -7 1 -13 -4 -13 -12 0 -8 6 -15
13 -17 7 -1 8 0 2 3 -5 2 -10 9 -10 14 0 6 5 7 10 4 12 -7 24 19 17 37 -3 7
-6 3 -6 -9z"/>
<path d="M5286 1363 c-6 -14 -5 -15 5 -6 7 7 10 15 7 18 -3 3 -9 -2 -12 -12z"/>
<path d="M1105 1360 c-3 -6 1 -7 9 -4 18 7 21 14 7 14 -6 0 -13 -4 -16 -10z"/>
<path d="M5195 1360 c27 -12 43 -12 25 0 -8 5 -22 9 -30 9 -10 0 -8 -3 5 -9z"/>
<path d="M5493 1353 c0 -9 4 -10 14 -2 7 6 13 12 13 14 0 1 -6 2 -13 2 -8 0
-14 -6 -14 -14z"/>
<path d="M5530 1361 c0 -6 4 -12 8 -15 5 -3 9 1 9 9 0 8 -4 15 -9 15 -4 0 -8
-4 -8 -9z"/>
<path d="M5395 1351 c-6 -11 13 -26 22 -17 4 3 1 6 -6 6 -7 0 -9 5 -6 10 3 6
4 10 1 10 -3 0 -7 -4 -11 -9z"/>
<path d="M1427 1339 c7 -7 15 -10 18 -7 3 3 -2 9 -12 12 -14 6 -15 5 -6 -5z"/>
<path d="M1470 1336 c7 -7 13 -7 20 0 6 6 3 10 -10 10 -13 0 -16 -4 -10 -10z"/>
<path d="M1593 1334 c0 -17 25 -26 33 -12 5 7 2 8 -6 3 -9 -6 -12 -4 -8 7 4 8
1 15 -6 15 -7 0 -13 -6 -13 -13z"/>
<path d="M1710 1341 c0 -6 7 -8 15 -4 10 3 15 0 13 -8 -2 -8 3 -14 11 -14 8 0
15 6 17 13 1 7 0 8 -3 2 -7 -14 -24 -13 -20 2 1 6 -6 14 -15 16 -10 2 -18 -1
-18 -7z"/>
<path d="M1813 1338 c3 -10 2 -20 -3 -23 -5 -3 -10 0 -13 7 -2 7 -2 2 0 -11 4
-21 2 -23 -11 -12 -11 9 -16 10 -16 2 0 -6 5 -11 11 -11 5 0 7 -4 4 -10 -15
-24 6 -7 26 21 17 24 19 33 9 42 -10 9 -12 8 -7 -5z"/>
<path d="M5294 1335 c-4 -8 -9 -13 -13 -11 -4 3 -8 -5 -8 -17 -2 -19 0 -18 16
6 10 15 21 24 26 20 4 -5 5 -2 1 5 -9 16 -15 15 -22 -3z"/>
<path d="M5440 1340 c-9 -6 -10 -10 -3 -10 6 0 15 5 18 10 8 12 4 12 -15 0z"/>
<path d="M5690 1340 c0 -5 5 -10 11 -10 5 0 7 5 4 10 -3 6 -8 10 -11 10 -2 0
-4 -4 -4 -10z"/>
<path d="M1355 1329 c-4 -6 -5 -12 -2 -15 2 -3 7 2 10 11 7 17 1 20 -8 4z"/>
<path d="M1537 1319 c4 -13 8 -18 11 -10 2 7 -1 18 -6 23 -8 8 -9 4 -5 -13z"/>
<path d="M1691 1332 c-1 -8 -6 -10 -13 -6 -10 5 -10 4 -1 -6 15 -16 28 -8 20
12 -4 11 -6 11 -6 0z"/>
<path d="M1316 1313 c-6 -14 -5 -15 5 -6 7 7 10 15 7 18 -3 3 -9 -2 -12 -12z"/>
<path d="M1499 1313 c-12 -16 -12 -17 2 -6 9 7 20 9 24 5 5 -4 5 -1 1 6 -9 16
-11 15 -27 -5z"/>
<path d="M1846 1318 c3 -4 0 -8 -7 -8 -7 0 -9 -3 -6 -6 9 -9 -65 -64 -77 -57
-5 4 -6 0 -1 -7 6 -10 4 -12 -8 -7 -22 8 -21 5 5 -17 17 -15 20 -15 15 -3 -4
11 4 24 26 38 18 12 44 35 58 50 22 23 24 27 8 26 -9 -1 -15 -5 -13 -9z"/>
<path d="M5325 1319 c-4 -6 -5 -12 -2 -15 2 -3 7 2 10 11 7 17 1 20 -8 4z"/>
<path d="M5473 1313 c0 -6 5 -9 11 -5 6 4 14 7 18 7 19 0 14 11 -6 11 -12 0
-23 -6 -23 -13z"/>
<path d="M1435 1309 c-4 -6 -5 -12 -2 -15 2 -3 7 2 10 11 7 17 1 20 -8 4z"/>
<path d="M1637 1313 c-10 -9 -9 -23 1 -23 5 0 9 7 9 15 0 17 -1 18 -10 8z"/>
<path d="M1710 1300 c0 -5 5 -10 10 -10 6 0 10 5 10 10 0 6 -4 10 -10 10 -5 0
-10 -4 -10 -10z"/>
<path d="M5210 1299 c0 -5 -4 -7 -10 -4 -5 3 -10 1 -10 -4 0 -16 16 -13 30 4
9 10 9 15 1 15 -6 0 -11 -5 -11 -11z"/>
<path d="M5294 1295 c-3 -8 -14 -17 -25 -20 -10 -4 -19 -11 -19 -16 0 -13 47
19 54 37 3 8 3 14 0 14 -2 0 -7 -7 -10 -15z"/>
<path d="M1454 1289 c-3 -6 -2 -15 3 -20 5 -5 9 -1 9 11 0 23 -2 24 -12 9z"/>
<path d="M5432 1295 c4 -4 0 -14 -10 -21 -15 -12 -15 -12 6 -7 24 6 29 18 10
29 -7 4 -10 4 -6 -1z"/>
<path d="M5491 1287 c-8 -10 -7 -14 2 -14 8 0 14 6 14 14 0 7 -1 13 -2 13 -2
0 -8 -6 -14 -13z"/>
<path d="M5634 1280 c0 -13 4 -16 10 -10 7 7 7 13 0 20 -6 6 -10 3 -10 -10z"/>
<path d="M1666 1282 c5 -4 12 -11 15 -15 3 -5 9 -2 12 5 3 9 -3 14 -15 15 -11
1 -16 -1 -12 -5z"/>
<path d="M1739 1283 c-1 -4 -1 -11 0 -15 2 -12 -17 -10 -22 2 -3 6 -4 5 -3 -2
2 -7 9 -13 17 -13 8 0 13 6 12 13 -3 14 13 16 20 2 3 -6 4 -5 3 2 -3 14 -25
24 -27 11z"/>
<path d="M5165 1268 c-7 -16 -17 -22 -32 -20 -12 2 -23 -1 -26 -5 -3 -5 17 -9
44 -9 27 0 49 4 49 8 0 5 -10 6 -22 2 -20 -6 -21 -5 -9 9 7 9 11 21 9 27 -2 6
-8 0 -13 -12z"/>
<path d="M5210 1274 c-34 -19 -10 -18 26 1 16 8 22 14 14 14 -8 -1 -26 -7 -40
-15z"/>
<path d="M5370 1286 c0 -2 7 -7 16 -10 8 -3 12 -2 9 4 -6 10 -25 14 -25 6z"/>
<path d="M1594 1271 c4 -5 0 -12 -6 -15 -7 -2 -3 -4 9 -2 12 1 26 6 30 11 5 4
2 5 -4 1 -7 -4 -13 -2 -13 3 0 6 -5 11 -11 11 -5 0 -8 -4 -5 -9z"/>
<path d="M1256 1258 c3 -5 10 -6 15 -3 13 9 11 12 -6 12 -8 0 -12 -4 -9 -9z"/>
<path d="M1644 1254 c-18 -14 -18 -15 4 -4 12 6 22 13 22 15 0 8 -5 6 -26 -11z"/>
<path d="M5294 1258 c-3 -5 -3 -12 0 -15 3 -4 6 -2 6 3 0 5 8 10 19 11 14 1
18 -3 13 -20 -3 -12 -2 -20 1 -17 3 3 7 14 9 25 2 15 -3 20 -20 21 -12 1 -25
-3 -28 -8z"/>
<path d="M5374 1263 c4 -7 2 -13 -4 -13 -6 0 -8 -4 -5 -10 3 -5 10 -10 15 -10
10 0 7 27 -5 37 -4 4 -5 2 -1 -4z"/>
<path d="M5470 1255 c8 -11 15 -21 16 -23 1 -1 7 5 15 15 10 12 10 15 1 9 -7
-4 -20 -2 -30 6 -16 12 -16 11 -2 -7z"/>
<path d="M5559 1253 c-13 -16 -12 -17 4 -4 9 7 17 15 17 17 0 8 -8 3 -21 -13z"/>
<path d="M1559 1258 c-5 -18 -6 -38 -1 -34 7 8 12 36 6 36 -2 0 -4 -1 -5 -2z"/>
<path d="M1436 1233 c-6 -14 -5 -15 5 -6 7 7 10 15 7 18 -3 3 -9 -2 -12 -12z"/>
<path d="M1670 1240 c0 -6 7 -13 15 -16 8 -4 13 -9 11 -13 -3 -4 0 -13 5 -21
7 -12 8 -10 6 6 -3 23 -37 63 -37 44z"/>
<path d="M1690 1246 c0 -2 7 -7 16 -10 8 -3 12 -2 9 4 -6 10 -25 14 -25 6z"/>
<path d="M5207 1231 c-4 -17 -3 -21 5 -13 5 5 8 16 6 23 -3 8 -7 3 -11 -10z"/>
<path d="M5273 1237 c1 -10 7 -18 12 -18 6 0 15 -10 22 -22 7 -12 12 -17 13
-11 0 14 -29 52 -30 39 -1 -5 -6 -1 -11 10 -7 17 -8 17 -6 2z"/>
<path d="M5514 1238 c-4 -7 -4 -10 1 -6 4 4 15 2 24 -5 14 -11 14 -10 2 6 -16
20 -18 21 -27 5z"/>
<path d="M5760 1246 c0 -2 8 -10 18 -17 15 -13 16 -12 3 4 -13 16 -21 21 -21
13z"/>
<path d="M5806 1238 c3 -5 10 -6 15 -3 13 9 11 12 -6 12 -8 0 -12 -4 -9 -9z"/>
<path d="M5240 1230 c-9 -6 -10 -10 -3 -10 6 0 15 5 18 10 8 12 4 12 -15 0z"/>
<path d="M1156 1213 c-6 -14 -5 -15 5 -6 7 7 10 15 7 18 -3 3 -9 -2 -12 -12z"/>
<path d="M1250 1219 c0 -5 5 -7 10 -4 6 3 10 8 10 11 0 2 -4 4 -10 4 -5 0 -10
-5 -10 -11z"/>
<path d="M1399 1213 c-13 -16 -12 -17 4 -4 16 13 21 21 13 21 -2 0 -10 -8 -17
-17z"/>
<path d="M1513 1211 c10 -12 9 -14 -4 -9 -9 4 -16 1 -16 -7 0 -10 5 -11 19 -4
10 6 16 14 13 19 -3 4 1 10 7 13 7 3 3 4 -9 4 -18 -1 -20 -4 -10 -16z"/>
<path d="M1590 1210 c-6 -11 -9 -20 -8 -20 2 0 11 9 21 20 9 11 13 20 7 20 -5
0 -14 -9 -20 -20z"/>
<path d="M1643 1224 c9 -3 15 -9 12 -14 -3 -5 5 -14 17 -20 20 -9 21 -9 7 2
-9 7 -16 18 -17 23 -1 6 -9 11 -19 12 -17 2 -17 1 0 -3z"/>
<path d="M5350 1220 c0 -6 7 -10 15 -10 8 0 15 2 15 4 0 2 -7 6 -15 10 -8 3
-15 1 -15 -4z"/>
<path d="M5170 1216 c0 -2 7 -9 15 -16 13 -11 14 -10 9 4 -5 14 -24 23 -24 12z"/>
<path d="M5424 1209 c1 -7 10 -13 19 -15 9 -1 15 2 11 7 -3 5 -9 7 -14 4 -4
-3 -11 0 -13 5 -3 6 -4 5 -3 -1z"/>
<path d="M5510 1213 c5 -2 8 -8 5 -13 -3 -4 3 -14 13 -21 16 -13 16 -13 2 5
-8 11 -14 22 -12 25 2 3 -1 6 -7 8 -7 1 -8 0 -1 -4z"/>
<path d="M955 1201 c-3 -5 -2 -12 3 -15 5 -3 9 1 9 9 0 17 -3 19 -12 6z"/>
<path d="M1611 1207 c2 -1 13 -9 24 -17 19 -14 19 -14 6 3 -7 9 -18 17 -24 17
-6 0 -8 -1 -6 -3z"/>
<path d="M5266 1196 c10 -8 21 -12 24 -10 5 6 -21 24 -34 24 -6 0 -1 -6 10
-14z"/>
<path d="M5334 1194 c3 -19 36 -41 36 -24 0 5 -7 10 -16 10 -8 0 -13 4 -9 9 3
5 1 12 -4 15 -5 4 -8 -1 -7 -10z"/>
<path d="M5380 1200 c-8 -5 -10 -10 -5 -10 6 0 17 5 25 10 8 5 11 10 5 10 -5
0 -17 -5 -25 -10z"/>
<path d="M5549 1197 c6 -8 9 -16 6 -19 -3 -2 2 -5 10 -5 13 0 13 3 -2 19 -19
21 -31 25 -14 5z"/>
<path d="M5795 1191 c-3 -5 -2 -12 3 -15 5 -3 9 1 9 9 0 17 -3 19 -12 6z"/>
<path d="M1550 1181 c0 -6 4 -12 8 -15 5 -3 9 1 9 9 0 8 -4 15 -9 15 -4 0 -8
-4 -8 -9z"/>
<path d="M5231 1186 c2 -2 15 -9 29 -16 23 -12 24 -12 11 3 -7 10 -20 17 -29
17 -8 0 -13 -2 -11 -4z"/>
<path d="M5600 1180 c-9 -6 -10 -10 -3 -10 6 0 15 5 18 10 8 12 4 12 -15 0z"/>
<path d="M5673 1183 c4 -3 1 -13 -6 -22 -11 -14 -10 -14 5 -2 16 12 16 31 1
31 -4 0 -3 -3 0 -7z"/>
<path d="M1410 1176 c0 -2 8 -10 18 -17 15 -13 16 -12 3 4 -13 16 -21 21 -21
13z"/>
<path d="M1616 1165 c-3 -8 -1 -15 4 -15 6 0 10 7 10 15 0 8 -2 15 -4 15 -2 0
-6 -7 -10 -15z"/>
<path d="M5393 1156 c0 -11 1 -15 4 -8 3 6 9 10 14 6 5 -3 9 -1 9 4 0 21 -26
19 -27 -2z"/>
<path d="M5452 1160 c0 -14 2 -19 5 -12 2 6 2 18 0 25 -3 6 -5 1 -5 -13z"/>
<path d="M5496 1167 c3 -10 9 -15 12 -12 3 3 0 11 -7 18 -10 9 -11 8 -5 -6z"/>
<path d="M1334 1162 c4 -3 14 -7 22 -8 9 -1 13 0 10 4 -4 3 -14 7 -22 8 -9 1
-13 0 -10 -4z"/>
<path d="M1680 1159 c0 -5 5 -7 10 -4 6 3 10 8 10 11 0 2 -4 4 -10 4 -5 0 -10
-5 -10 -11z"/>
<path d="M5291 1165 c4 -3 19 -8 35 -11 16 -3 26 -2 23 1 -4 3 -19 8 -35 11
-16 3 -26 2 -23 -1z"/>
<path d="M5473 1151 c0 -11 5 -18 9 -15 4 3 5 11 1 19 -7 21 -12 19 -10 -4z"/>
<path d="M1590 1151 c0 -7 -5 -9 -12 -5 -7 5 -8 3 -3 -5 5 -9 10 -10 18 -2 6
6 8 14 4 18 -4 3 -7 1 -7 -6z"/>
<path d="M1660 1149 c0 -5 -4 -8 -8 -5 -4 2 -14 0 -22 -5 -11 -7 -9 -8 9 -6
21 3 45 27 27 27 -3 0 -6 -5 -6 -11z"/>
<path d="M5596 1147 c3 -10 9 -15 12 -12 3 3 0 11 -7 18 -10 9 -11 8 -5 -6z"/>
<path d="M1255 1140 c3 -5 8 -10 11 -10 2 0 4 5 4 10 0 6 -5 10 -11 10 -5 0
-7 -4 -4 -10z"/>
<path d="M1694 1137 c-3 -9 -3 -25 0 -34 6 -15 8 -15 24 0 15 16 15 18 0 34
-16 15 -18 15 -24 0z m18 -29 c-9 -9 -12 -7 -12 12 0 19 3 21 12 12 9 -9 9
-15 0 -24z"/>
<path d="M5285 1140 c3 -5 11 -10 16 -10 6 0 7 5 4 10 -3 6 -11 10 -16 10 -6
0 -7 -4 -4 -10z"/>
<path d="M5430 1145 c0 -5 5 -17 10 -25 5 -8 10 -10 10 -5 0 6 -5 17 -10 25
-5 8 -10 11 -10 5z"/>
<path d="M1495 1130 c-4 -6 -11 -7 -17 -4 -7 4 -8 2 -4 -5 4 -6 11 -9 16 -6 4
3 10 -1 13 -7 3 -7 4 -3 4 10 -1 25 -3 26 -12 12z"/>
<path d="M5321 1133 c-1 -6 -4 -20 -7 -30 -5 -17 -5 -17 6 0 6 10 9 23 6 30
-3 9 -5 9 -5 0z"/>
<path d="M5351 1133 c-1 -18 13 -23 29 -11 12 8 12 9 -2 5 -9 -3 -19 -1 -22 6
-3 9 -5 9 -5 0z"/>
<path d="M5530 1136 c0 -2 8 -10 18 -17 15 -13 16 -12 3 4 -13 16 -21 21 -21
13z"/>
<path d="M5656 1127 c3 -10 9 -15 12 -12 3 3 0 11 -7 18 -10 9 -11 8 -5 -6z"/>
<path d="M1607 1119 c7 -7 15 -10 18 -7 3 3 -2 9 -12 12 -14 6 -15 5 -6 -5z"/>
<path d="M5779 1128 c-5 -18 -6 -38 -1 -34 7 8 12 36 6 36 -2 0 -4 -1 -5 -2z"/>
<path d="M5270 1110 c0 -5 7 -7 15 -4 8 4 15 8 15 10 0 2 -7 4 -15 4 -8 0 -15
-4 -15 -10z"/>
<path d="M5385 1107 c-14 -11 -15 -16 -5 -22 9 -5 11 -4 6 3 -4 7 -5 12 -2 12
2 0 12 3 22 7 13 5 15 3 9 -7 -5 -9 -4 -11 4 -6 11 7 6 26 -8 26 -4 0 -15 -6
-26 -13z"/>
<path d="M1250 1099 c0 -5 5 -7 10 -4 6 3 10 8 10 11 0 2 -4 4 -10 4 -5 0 -10
-5 -10 -11z"/>
<path d="M1437 1088 c19 -21 31 -25 14 -5 -6 8 -9 16 -6 19 3 2 -2 5 -10 5
-13 0 -13 -3 2 -19z"/>
<path d="M1467 1099 c7 -9 11 -18 8 -21 -3 -3 3 -11 12 -19 16 -12 17 -12 6 2
-7 9 -11 18 -8 21 3 3 -3 11 -12 19 -16 12 -17 12 -6 -2z"/>
<path d="M1671 1105 c1 -19 18 -51 18 -35 0 8 -4 22 -9 30 -5 8 -9 11 -9 5z"/>
<path d="M1729 1093 c-9 -11 -10 -14 -1 -9 7 4 12 1 12 -9 0 -13 -4 -14 -22
-5 -22 11 -22 10 -4 -4 23 -19 40 -11 33 15 -6 22 9 26 16 4 4 -12 5 -11 3 1
-2 24 -20 28 -37 7z"/>
<path d="M5337 1103 c-12 -12 -7 -22 16 -33 20 -10 20 -10 5 3 -20 16 -25 32
-6 21 7 -4 8 -3 4 4 -8 14 -10 14 -19 5z"/>
<path d="M5485 1099 c-4 -6 -5 -12 -2 -15 2 -3 7 2 10 11 7 17 1 20 -8 4z"/>
<path d="M5510 1106 c0 -2 7 -7 16 -10 8 -3 12 -2 9 4 -6 10 -25 14 -25 6z"/>
<path d="M1633 1078 c0 -16 4 -28 10 -28 6 0 7 3 4 7 -4 3 -1 13 6 21 8 11 8
14 0 9 -6 -4 -13 -1 -16 5 -2 7 -4 1 -4 -14z"/>
<path d="M1394 1078 c-4 -7 -4 -10 1 -6 4 4 15 2 24 -5 14 -11 14 -10 2 6 -16
20 -18 21 -27 5z"/>
<path d="M1560 1080 c-8 -5 -10 -10 -5 -10 6 0 17 5 25 10 8 5 11 10 5 10 -5
0 -17 -5 -25 -10z"/>
<path d="M1780 1080 c0 -5 5 -10 11 -10 5 0 7 5 4 10 -3 6 -8 10 -11 10 -2 0
-4 -4 -4 -10z"/>
<path d="M5250 1080 c0 -12 35 -31 43 -24 3 4 5 -3 4 -14 -1 -13 -8 -20 -19
-19 -12 1 -16 7 -13 16 3 9 3 12 -1 8 -4 -4 -13 1 -19 10 -10 14 -16 15 -27 5
-8 -6 -18 -9 -21 -5 -4 3 -7 1 -7 -5 0 -15 6 -15 32 -1 18 10 20 9 15 -5 -4
-10 -3 -15 2 -12 5 3 11 0 14 -8 3 -7 16 -13 29 -12 17 1 23 7 23 26 0 14 -6
26 -12 26 -7 1 -18 2 -24 3 -5 0 -7 6 -4 11 3 6 1 10 -4 10 -6 0 -11 -4 -11
-10z"/>
<path d="M5573 1074 c0 -9 4 -11 12 -4 7 5 14 9 16 7 2 -1 3 0 1 2 -7 11 -29
7 -29 -5z"/>
<path d="M5710 1080 c0 -5 5 -10 10 -10 6 0 10 5 10 10 0 6 -4 10 -10 10 -5 0
-10 -4 -10 -10z"/>
<path d="M5753 1075 c0 -8 4 -12 9 -9 5 3 6 10 3 15 -9 13 -12 11 -12 -6z"/>
<path d="M1595 1070 c-3 -6 1 -7 9 -4 18 7 21 14 7 14 -6 0 -13 -4 -16 -10z"/>
<path d="M1833 1067 c10 -25 -27 -42 -47 -21 -9 8 -16 10 -16 4 0 -6 7 -13 15
-16 8 -4 12 -11 8 -17 -4 -6 8 -1 25 12 34 24 39 35 20 47 -8 5 -9 2 -5 -9z"/>
<path d="M5316 1067 c3 -10 9 -15 12 -12 3 3 0 11 -7 18 -10 9 -11 8 -5 -6z"/>
<path d="M5395 1070 c-3 -6 1 -7 9 -4 18 7 21 14 7 14 -6 0 -13 -4 -16 -10z"/>
<path d="M1800 1060 c-13 -8 -12 -10 3 -10 9 0 17 5 17 10 0 12 -1 12 -20 0z"/>
<path d="M1453 1045 c0 -8 3 -13 5 -10 3 3 12 -1 21 -7 10 -8 9 -4 -3 10 -23
26 -23 26 -23 7z"/>
<path d="M1580 1048 c8 -8 20 -20 26 -27 9 -10 13 -10 19 0 5 8 4 10 -3 5 -7
-4 -12 -3 -12 3 0 6 -10 15 -22 21 -20 10 -21 9 -8 -2z"/>
<path d="M5452 1050 c4 -14 55 -23 63 -10 2 4 -8 6 -23 5 -15 -1 -31 3 -35 9
-6 7 -7 6 -5 -4z"/>
<path d="M1406 1042 c-3 -5 1 -9 9 -9 8 0 12 4 9 9 -3 4 -7 8 -9 8 -2 0 -6 -4
-9 -8z"/>
<path d="M1516 1038 c3 -5 10 -6 15 -3 13 9 11 12 -6 12 -8 0 -12 -4 -9 -9z"/>
<path d="M1660 1045 c0 -8 29 -12 39 -5 9 5 4 8 -13 8 -14 0 -26 -2 -26 -3z"/>
<path d="M1750 1049 c0 -14 31 -81 36 -76 3 3 -4 22 -15 44 -11 21 -20 35 -21
32z"/>
<path d="M5370 1038 c0 -6 3 -8 7 -5 3 4 13 1 22 -6 14 -11 14 -10 2 6 -15 20
-31 22 -31 5z"/>
<path d="M5586 1039 c4 -8 30 -6 38 2 3 3 -5 5 -19 5 -13 0 -22 -3 -19 -7z"/>
<path d="M1706 1027 c-15 -11 -16 -16 -6 -22 8 -5 11 -4 6 3 -4 7 1 10 14 9
22 -1 27 -13 8 -20 -10 -4 -10 -6 -1 -6 20 -2 26 20 11 35 -12 12 -17 12 -32
1z"/>
<path d="M5170 1030 c0 -5 5 -10 11 -10 5 0 7 5 4 10 -3 6 -8 10 -11 10 -2 0
-4 -4 -4 -10z"/>
<path d="M1507 1019 c7 -7 15 -10 18 -7 3 3 -2 9 -12 12 -14 6 -15 5 -6 -5z"/>
<path d="M1644 1014 c-18 -14 -18 -15 4 -4 12 6 22 13 22 15 0 8 -5 6 -26 -11z"/>
<path d="M5213 1005 c0 -14 3 -27 7 -30 4 -3 8 7 8 20 0 14 -4 27 -8 30 -4 3
-7 -7 -7 -20z"/>
<path d="M1453 1005 c0 -8 3 -13 5 -10 3 3 15 -3 26 -12 15 -14 18 -14 8 -2
-6 9 -8 20 -4 25 4 5 3 6 -2 2 -5 -4 -14 -3 -21 2 -8 7 -12 5 -12 -5z"/>
<path d="M5355 1010 c-3 -5 -1 -10 4 -10 6 0 11 5 11 10 0 6 -2 10 -4 10 -3 0
-8 -4 -11 -10z"/>
<path d="M5421 1004 c0 -11 3 -14 6 -6 3 7 2 16 -1 19 -3 4 -6 -2 -5 -13z"/>
<path d="M5499 1018 c-5 -18 -6 -38 -1 -34 7 8 12 36 6 36 -2 0 -4 -1 -5 -2z"/>
<path d="M1270 1006 c0 -2 7 -7 16 -10 8 -3 12 -2 9 4 -6 10 -25 14 -25 6z"/>
<path d="M1570 1000 c0 -5 5 -10 10 -10 6 0 10 5 10 10 0 6 -4 10 -10 10 -5 0
-10 -4 -10 -10z"/>
<path d="M1660 999 c-13 -9 -12 -10 3 -5 20 6 21 3 6 -27 -10 -22 -10 -22 6
-2 9 11 18 19 21 17 3 -2 8 -1 10 2 2 3 1 4 -3 1 -3 -3 -11 2 -17 10 -8 11
-15 12 -26 4z"/>
<path d="M5180 997 c0 -7 5 -18 12 -25 9 -9 7 -13 -5 -18 -9 -3 -17 -11 -17
-16 0 -7 5 -6 14 1 11 9 14 6 14 -13 0 -14 -5 -24 -11 -23 -6 1 -13 -6 -15
-15 -2 -10 1 -18 7 -18 6 0 8 7 4 15 -3 10 0 15 8 13 16 -3 21 60 6 79 -5 7
-6 17 -2 23 3 5 1 10 -4 10 -6 0 -11 -6 -11 -13z"/>
<path d="M5241 994 c0 -11 3 -14 6 -6 3 7 2 16 -1 19 -3 4 -6 -2 -5 -13z"/>
<path d="M5676 1002 c-3 -5 1 -9 9 -9 8 0 12 4 9 9 -3 4 -7 8 -9 8 -2 0 -6 -4
-9 -8z"/>
<path d="M5739 1008 c-5 -18 -6 -38 -1 -34 7 8 12 36 6 36 -2 0 -4 -1 -5 -2z"/>
<path d="M5270 989 c0 -5 5 -7 10 -4 6 3 10 8 10 11 0 2 -4 4 -10 4 -5 0 -10
-5 -10 -11z"/>
<path d="M1520 980 c-9 -6 -10 -10 -3 -10 6 0 15 5 18 10 8 12 4 12 -15 0z"/>
<path d="M1627 970 c3 -11 9 -22 13 -25 5 -3 6 4 3 15 -3 11 -9 22 -13 25 -5
3 -6 -4 -3 -15z"/>
<path d="M1754 966 c3 -16 8 -31 11 -35 3 -3 4 7 1 23 -3 16 -8 31 -11 35 -3
3 -4 -7 -1 -23z"/>
<path d="M5297 983 c-3 -5 0 -17 4 -28 9 -19 9 -19 5 2 -2 14 2 23 13 26 14 4
14 5 -1 6 -9 0 -19 -2 -21 -6z"/>
<path d="M5348 983 c7 -3 16 -2 19 1 4 3 -2 6 -13 5 -11 0 -14 -3 -6 -6z"/>
<path d="M5109 959 c-6 -11 -8 -23 -5 -27 3 -3 6 -1 6 5 0 6 7 10 16 9 22 -1
29 20 10 27 -10 4 -20 -2 -27 -14z m26 1 c3 -5 1 -10 -4 -10 -6 0 -11 5 -11
10 0 6 2 10 4 10 3 0 8 -4 11 -10z"/>
<path d="M5420 970 c0 -5 -7 -7 -15 -4 -8 4 -15 2 -15 -4 0 -14 33 -8 38 6 2
7 1 12 -2 12 -3 0 -6 -4 -6 -10z"/>
<path d="M5453 965 c0 -8 3 -13 5 -10 3 3 12 -1 21 -7 10 -8 9 -4 -3 10 -23
26 -23 26 -23 7z"/>
<path d="M1366 958 c3 -5 10 -6 15 -3 13 9 11 12 -6 12 -8 0 -12 -4 -9 -9z"/>
<path d="M1399 953 c-13 -16 -12 -17 4 -4 16 13 21 21 13 21 -2 0 -10 -8 -17
-17z"/>
<path d="M1710 960 c0 -5 7 -7 15 -4 8 4 15 8 15 10 0 2 -7 4 -15 4 -8 0 -15
-4 -15 -10z"/>
<path d="M5235 960 c-13 -6 -15 -9 -5 -9 8 0 22 4 30 9 18 12 2 12 -25 0z"/>
<path d="M5325 960 c-3 -6 1 -7 9 -4 18 7 21 14 7 14 -6 0 -13 -4 -16 -10z"/>
<path d="M5550 961 c0 -6 4 -13 10 -16 6 -3 7 1 4 9 -7 18 -14 21 -14 7z"/>
<path d="M5667 959 c7 -7 15 -10 18 -7 3 3 -2 9 -12 12 -14 6 -15 5 -6 -5z"/>
<path d="M1820 945 c-9 -10 -9 -15 -1 -15 6 0 11 5 11 11 0 5 5 7 12 3 7 -4 8
-3 4 4 -9 15 -11 15 -26 -3z"/>
<path d="M1470 938 c0 -4 4 -8 9 -8 6 0 12 4 15 8 3 5 -1 9 -9 9 -8 0 -15 -4
-15 -9z"/>
<path d="M1680 946 c0 -2 7 -7 16 -10 8 -3 12 -2 9 4 -6 10 -25 14 -25 6z"/>
<path d="M1725 939 c-6 -8 -4 -10 5 -4 9 5 10 1 6 -16 -6 -21 -6 -22 5 -6 7
13 8 22 1 29 -6 6 -12 6 -17 -3z"/>
<path d="M5259 943 c-1 -5 -1 -12 0 -16 1 -5 -9 -6 -21 -2 -20 5 -21 4 -5 -5
20 -13 41 -4 31 12 -5 7 -1 9 9 5 10 -3 17 -2 17 3 0 12 -29 14 -31 3z"/>
<path d="M5336 942 c-2 -4 -1 -14 3 -20 6 -10 11 -9 21 3 11 13 10 14 -5 9
-13 -5 -16 -4 -11 4 4 7 5 12 2 12 -3 0 -7 -4 -10 -8z"/>
<path d="M5506 938 c3 -4 9 -8 15 -8 5 0 9 4 9 8 0 5 -7 9 -15 9 -8 0 -12 -4
-9 -9z"/>
<path d="M1539 938 c-5 -18 -6 -38 -1 -34 7 8 12 36 6 36 -2 0 -4 -1 -5 -2z"/>
<path d="M1611 931 c-8 -5 -9 -11 -3 -15 5 -3 12 1 16 9 6 17 6 18 -13 6z"/>
<path d="M1890 925 c0 -8 2 -15 4 -15 2 0 6 7 10 15 3 8 1 15 -4 15 -6 0 -10
-7 -10 -15z"/>
<path d="M5081 924 c0 -11 3 -14 6 -6 3 7 2 16 -1 19 -3 4 -6 -2 -5 -13z"/>
<path d="M5150 932 c0 -8 -5 -10 -12 -6 -8 5 -8 1 2 -12 8 -10 15 -20 16 -22
1 -2 4 3 7 11 3 8 1 20 -4 28 -7 11 -9 11 -9 1z"/>
<path d="M1295 920 c-3 -5 -1 -10 4 -10 6 0 11 5 11 10 0 6 -2 10 -4 10 -3 0
-8 -4 -11 -10z"/>
<path d="M1435 920 c3 -5 8 -10 11 -10 2 0 4 5 4 10 0 6 -5 10 -11 10 -5 0 -7
-4 -4 -10z"/>
<path d="M1775 920 c-3 -5 -2 -10 4 -10 5 0 13 5 16 10 3 6 2 10 -4 10 -5 0
-13 -4 -16 -10z"/>
<path d="M1861 910 c16 -12 19 -19 10 -20 -8 0 -12 -2 -9 -5 3 -3 13 -3 22 1
14 5 13 9 -8 25 -32 25 -45 25 -15 -1z"/>
<path d="M5304 918 c-4 -7 -4 -10 1 -6 4 4 14 0 22 -10 13 -15 13 -15 3 6 -12
25 -16 27 -26 10z"/>
<path d="M5574 922 c4 -3 14 -7 22 -8 9 -1 13 0 10 4 -4 3 -14 7 -22 8 -9 1
-13 0 -10 -4z"/>
<path d="M5725 920 c-3 -6 1 -7 9 -4 18 7 21 14 7 14 -6 0 -13 -4 -16 -10z"/>
<path d="M1820 909 c0 -5 -4 -8 -8 -5 -4 2 -14 0 -22 -5 -11 -7 -9 -8 9 -6 21
3 45 27 27 27 -3 0 -6 -5 -6 -11z"/>
<path d="M1910 909 c0 -5 5 -7 10 -4 6 3 10 8 10 11 0 2 -4 4 -10 4 -5 0 -10
-5 -10 -11z"/>
<path d="M5100 916 c0 -2 7 -7 16 -10 8 -3 12 -2 9 4 -6 10 -25 14 -25 6z"/>
<path d="M5399 918 c-5 -18 -6 -38 -1 -34 7 8 12 36 6 36 -2 0 -4 -1 -5 -2z"/>
<path d="M1475 901 c-3 -5 -2 -12 3 -15 5 -3 9 1 9 9 0 17 -3 19 -12 6z"/>
<path d="M1559 893 c-13 -16 -12 -17 4 -4 16 13 21 21 13 21 -2 0 -10 -8 -17
-17z"/>
<path d="M1676 893 c-6 -14 -5 -15 5 -6 7 7 10 15 7 18 -3 3 -9 -2 -12 -12z"/>
<path d="M1750 905 c0 -5 5 -17 10 -25 5 -8 10 -10 10 -5 0 6 -5 17 -10 25 -5
8 -10 11 -10 5z"/>
<path d="M1839 903 c0 -5 -3 -19 -5 -32 -2 -14 -2 -22 1 -19 8 8 17 58 10 58
-3 0 -5 -3 -6 -7z"/>
<path d="M5275 901 c3 -5 1 -12 -5 -16 -5 -3 -10 -11 -10 -18 0 -6 7 -2 15 9
17 23 19 34 4 34 -5 0 -8 -4 -4 -9z"/>
<path d="M5675 900 c-3 -5 -1 -10 4 -10 6 0 11 5 11 10 0 6 -2 10 -4 10 -3 0
-8 -4 -11 -10z"/>
<path d="M1613 883 c1 -17 4 -19 14 -11 15 12 18 22 4 14 -5 -4 -11 0 -14 6
-3 7 -4 3 -4 -9z"/>
<path d="M5090 889 c0 -5 -4 -7 -10 -4 -6 3 -7 -1 -4 -10 4 -9 7 -15 8 -13 1
2 8 11 15 21 9 11 10 17 2 17 -6 0 -11 -5 -11 -11z"/>
<path d="M1910 882 c0 -7 5 -12 11 -12 5 0 7 -5 3 -12 -5 -7 -3 -8 5 -4 8 6
11 2 9 -10 -2 -11 -11 -24 -22 -30 -17 -10 -17 -12 -2 -17 10 -4 15 -3 11 2
-3 5 0 11 7 13 19 7 18 45 -2 63 -12 10 -20 13 -20 7z"/>
<path d="M5115 880 c-4 -6 -4 -14 -1 -17 3 -4 6 -1 6 5 0 7 5 12 11 12 5 0 7
-5 4 -10 -3 -6 1 -13 9 -16 9 -3 14 -10 11 -14 -3 -5 -1 -11 4 -14 5 -4 8 1 7
10 -1 8 -8 19 -15 23 -7 5 -12 12 -11 17 2 13 -17 16 -25 4z"/>
<path d="M5230 880 c0 -5 5 -10 11 -10 5 0 7 5 4 10 -3 6 -8 10 -11 10 -2 0
-4 -4 -4 -10z"/>
<path d="M1516 858 c3 -5 10 -6 15 -3 13 9 11 12 -6 12 -8 0 -12 -4 -9 -9z"/>
<path d="M1640 855 c-7 -8 -16 -13 -19 -10 -4 2 -8 -2 -8 -10 0 -10 4 -12 12
-5 7 5 15 8 18 5 4 -3 5 -2 2 2 -3 3 0 12 6 20 6 7 9 13 6 13 -2 0 -10 -7 -17
-15z"/>
<path d="M1854 859 c-3 -5 0 -17 6 -26 10 -16 10 -16 5 2 -4 16 0 21 15 22 11
1 19 -3 17 -9 -1 -6 5 -13 13 -15 12 -4 12 -3 2 5 -8 5 -13 13 -13 18 2 12
-38 14 -45 3z"/>
<path d="M5050 860 c0 -5 -3 -9 -7 -9 -21 3 -31 -3 -29 -18 2 -9 8 -18 15 -19
6 -1 7 0 2 2 -6 3 -7 12 -4 20 4 10 8 12 12 5 4 -6 12 -2 19 9 7 12 8 20 2 20
-5 0 -10 -4 -10 -10z"/>
<path d="M5192 861 c-11 -7 -10 -9 3 -14 9 -4 14 -3 10 2 -3 5 1 12 7 14 7 3
9 6 3 6 -5 0 -16 -3 -23 -8z"/>
<path d="M1786 844 c-4 -9 -4 -19 -1 -22 3 -3 5 0 5 7 0 7 4 9 10 6 6 -3 7 1
4 9 -8 20 -10 20 -18 0z"/>
<path d="M5334 846 c1 -8 5 -18 8 -22 4 -3 5 1 4 10 -1 8 -5 18 -8 22 -4 3 -5
-1 -4 -10z"/>
<path d="M1686 842 c-3 -5 1 -9 9 -9 8 0 15 4 15 9 0 4 -4 8 -9 8 -6 0 -12 -4
-15 -8z"/>
<path d="M1963 839 c3 -9 0 -23 -6 -30 -10 -11 -9 -11 6 0 15 12 17 11 17 -7
0 -15 -5 -19 -19 -15 -23 6 -33 -8 -19 -27 8 -12 9 -11 4 3 -5 14 -1 18 16 15
29 -4 35 24 12 54 -9 13 -14 16 -11 7z"/>
<path d="M5109 833 c12 -8 25 -12 28 -9 4 3 1 6 -6 6 -7 0 -10 4 -7 8 2 4 -5
9 -16 9 -21 2 -21 2 1 -14z"/>
<path d="M2006 823 c-6 -14 -5 -15 5 -6 7 7 10 15 7 18 -3 3 -9 -2 -12 -12z"/>
<path d="M2068 819 c-10 -10 -16 -19 -14 -19 2 0 11 -3 19 -6 10 -4 15 2 15
20 0 14 -1 26 -2 25 0 0 -9 -9 -18 -20z"/>
<path d="M4980 825 c-6 -8 -9 -19 -5 -25 8 -13 35 -13 35 0 0 5 -7 7 -16 3
-14 -5 -15 -3 -5 15 13 25 9 29 -9 7z"/>
<path d="M1416 818 c3 -5 10 -6 15 -3 13 9 11 12 -6 12 -8 0 -12 -4 -9 -9z"/>
<path d="M1715 821 c-3 -5 -2 -12 3 -15 5 -3 9 1 9 9 0 17 -3 19 -12 6z"/>
<path d="M1748 823 c7 -3 16 -2 19 1 4 3 -2 6 -13 5 -11 0 -14 -3 -6 -6z"/>
<path d="M1833 815 c0 -8 4 -12 9 -9 4 3 8 9 8 15 0 5 -4 9 -8 9 -5 0 -9 -7
-9 -15z"/>
<path d="M1872 801 c-8 -22 -8 -29 1 -25 7 2 13 15 13 29 2 33 -2 32 -14 -4z"/>
<path d="M2104 816 c4 -10 1 -25 -5 -32 -8 -10 -8 -14 0 -14 6 0 11 5 11 11 0
5 5 7 12 3 7 -4 8 -3 4 4 -11 18 4 14 22 -6 10 -10 13 -12 8 -5 -5 8 -5 17 -1
21 4 4 10 1 12 -5 3 -7 9 -13 15 -13 6 0 4 7 -3 17 -12 15 -12 16 6 9 15 -5
17 -4 9 4 -8 8 -18 9 -30 2 -21 -10 -44 -5 -57 12 -5 7 -6 3 -3 -8z"/>
<path d="M5059 823 c-1 -5 -1 -11 0 -15 0 -5 -3 -8 -7 -8 -5 0 -17 -7 -28 -16
-18 -15 -18 -15 3 -5 28 14 36 14 27 -1 -4 -6 -3 -8 4 -4 6 3 9 15 7 26 -3 14
2 20 15 20 13 0 17 -6 14 -22 -4 -21 -4 -21 5 -3 11 25 5 35 -20 35 -10 0 -20
-3 -20 -7z"/>
<path d="M5490 820 c0 -5 5 -10 11 -10 5 0 7 5 4 10 -3 6 -8 10 -11 10 -2 0
-4 -4 -4 -10z"/>
<path d="M5260 809 c0 -5 -4 -7 -10 -4 -14 9 -12 -1 3 -13 10 -8 13 -6 14 9 1
10 0 19 -3 19 -2 0 -4 -5 -4 -11z"/>
<path d="M1739 793 c-13 -17 -13 -17 6 -3 11 8 22 16 24 17 2 2 0 3 -6 3 -6 0
-17 -8 -24 -17z"/>
<path d="M1776 793 c-6 -14 -5 -15 5 -6 7 7 10 15 7 18 -3 3 -9 -2 -12 -12z"/>
<path d="M4950 805 c0 -5 5 -17 10 -25 5 -8 10 -10 10 -5 0 6 -5 17 -10 25 -5
8 -10 11 -10 5z"/>
<path d="M5143 799 c9 -6 15 -14 12 -20 -4 -5 -1 -9 4 -9 6 0 11 4 11 8 0 12
-22 32 -34 32 -6 0 -3 -5 7 -11z"/>
<path d="M5540 806 c0 -2 8 -10 18 -17 15 -13 16 -12 3 4 -13 16 -21 21 -21
13z"/>
<path d="M1494 782 c4 -3 14 -7 22 -8 9 -1 13 0 10 4 -4 3 -14 7 -22 8 -9 1
-13 0 -10 -4z"/>
<path d="M1640 780 c-9 -6 -10 -10 -3 -10 6 0 15 5 18 10 8 12 4 12 -15 0z"/>
<path d="M2015 781 c-9 -8 -5 -31 5 -31 5 0 6 7 3 17 -4 9 -2 14 3 10 6 -3 16
-2 24 3 11 7 9 9 -8 7 -13 -1 -25 -3 -27 -6z"/>
<path d="M4847 774 c5 -13 3 -15 -7 -9 -9 5 -11 4 -6 -3 4 -7 11 -12 17 -12
12 0 12 27 -1 35 -6 4 -7 -1 -3 -11z"/>
<path d="M4917 779 c-19 -11 -23 -29 -6 -29 5 0 8 4 5 9 -3 5 1 12 10 15 13 5
15 2 11 -14 -3 -13 0 -23 9 -27 8 -3 12 -8 9 -12 -2 -4 3 -8 12 -8 13 0 13 3
-3 16 -11 9 -18 23 -16 33 4 21 -9 29 -31 17z"/>
<path d="M5231 773 c7 -12 15 -20 18 -17 3 2 -3 12 -13 22 -17 16 -18 16 -5
-5z"/>
<path d="M5495 780 c-3 -5 -1 -10 4 -10 6 0 11 5 11 10 0 6 -2 10 -4 10 -3 0
-8 -4 -11 -10z"/>
<path d="M2070 769 c0 -5 -4 -7 -10 -4 -6 4 -7 -1 -3 -11 4 -11 8 -13 11 -6 2
7 8 10 13 7 5 -4 6 1 3 9 -7 18 -14 21 -14 5z"/>
<path d="M4875 759 c6 -32 13 -34 13 -4 0 14 -4 25 -9 25 -4 0 -6 -10 -4 -21z"/>
<path d="M1733 753 c0 -8 5 -9 11 -4 6 4 23 7 39 6 15 -1 27 1 27 5 0 4 -17 7
-38 6 -24 0 -39 -6 -39 -13z"/>
<path d="M1890 758 c0 -6 3 -8 7 -5 3 4 13 1 22 -6 14 -11 14 -10 2 6 -15 20
-31 22 -31 5z"/>
<path d="M2120 755 c0 -8 -5 -14 -12 -12 -6 1 -13 -6 -14 -16 -1 -12 0 -13 3
-2 2 8 9 13 14 9 5 -3 12 2 15 10 5 12 10 13 24 4 10 -7 16 -16 13 -22 -3 -5
-1 -6 5 -2 18 11 35 46 22 46 -5 0 -10 -7 -10 -16 0 -15 -2 -15 -25 0 -30 20
-35 20 -35 1z"/>
<path d="M4985 760 c3 -5 8 -10 11 -10 2 0 4 5 4 10 0 6 -5 10 -11 10 -5 0 -7
-4 -4 -10z"/>
<path d="M5060 755 c-11 -13 -10 -14 5 -9 11 5 16 4 12 -3 -3 -5 0 -10 8 -10
10 0 12 4 5 12 -5 7 -7 15 -3 18 3 4 2 7 -4 7 -6 0 -16 -7 -23 -15z"/>
<path d="M5124 759 c-3 -6 -2 -15 3 -20 5 -5 9 -1 9 11 0 23 -2 24 -12 9z"/>
<path d="M5213 755 c0 -8 4 -12 9 -9 5 3 6 10 3 15 -9 13 -12 11 -12 -6z"/>
<path d="M5459 768 c-5 -18 -6 -38 -1 -34 7 8 12 36 6 36 -2 0 -4 -1 -5 -2z"/>
<path d="M1875 743 c3 -3 0 -11 -5 -18 -7 -8 -5 -12 4 -12 14 0 16 22 3 32 -4
3 -5 2 -2 -2z"/>
<path d="M1990 740 c0 -5 5 -10 11 -10 5 0 7 5 4 10 -3 6 -8 10 -11 10 -2 0
-4 -4 -4 -10z"/>
<path d="M2030 740 c-13 -8 -12 -10 3 -10 9 0 17 5 17 10 0 12 -1 12 -20 0z"/>
<path d="M2196 735 c-3 -9 -6 -22 -5 -28 0 -7 5 -1 10 12 5 13 8 26 5 28 -2 2
-6 -3 -10 -12z"/>
<path d="M4786 725 c9 -14 21 -25 26 -25 5 0 7 -4 3 -9 -3 -5 -1 -12 4 -15 5
-4 8 1 7 10 -1 8 -9 20 -17 24 -11 8 -10 12 6 24 11 9 15 16 10 16 -6 0 -16
-5 -23 -12 -9 -9 -12 -9 -12 0 0 7 -5 12 -10 12 -6 0 -3 -11 6 -25z"/>
<path d="M4982 737 c10 -8 16 -17 13 -20 -3 -4 -2 -5 2 -2 3 3 12 0 20 -7 10
-8 12 -8 8 4 -3 9 -18 20 -33 27 -23 10 -25 10 -10 -2z"/>
<path d="M1809 723 c-13 -16 -12 -17 4 -4 9 7 17 15 17 17 0 8 -8 3 -21 -13z"/>
<path d="M1941 724 c0 -11 3 -14 6 -6 3 7 2 16 -1 19 -3 4 -6 -2 -5 -13z"/>
<path d="M4663 733 c-19 -7 -16 -16 8 -31 12 -8 18 -9 15 -4 -3 6 -3 12 1 15
5 2 2 2 -6 0 -8 -2 -11 2 -7 12 3 8 4 15 3 14 -1 0 -8 -3 -14 -6z"/>
<path d="M4705 724 c9 -9 19 -13 23 -10 3 4 0 11 -8 16 -24 15 -33 11 -15 -6z"/>
<path d="M4835 730 c-3 -5 -2 -18 4 -27 7 -14 9 -12 8 10 -2 30 -3 31 -12 17z"/>
<path d="M4860 734 c0 -5 7 -18 15 -28 8 -11 15 -16 15 -10 0 5 -7 18 -15 28
-8 11 -15 16 -15 10z"/>
<path d="M5036 727 c3 -10 9 -15 12 -12 3 3 0 11 -7 18 -10 9 -11 8 -5 -6z"/>
<path d="M5153 726 c0 -15 22 -15 34 0 4 5 4 6 -1 2 -5 -4 -14 -3 -21 2 -8 7
-12 5 -12 -4z"/>
<path d="M5313 725 c0 -8 4 -12 9 -9 5 3 6 10 3 15 -9 13 -12 11 -12 -6z"/>
<path d="M1744 722 c4 -3 14 -7 22 -8 9 -1 13 0 10 4 -4 3 -14 7 -22 8 -9 1
-13 0 -10 -4z"/>
<path d="M2120 715 c-19 -22 -8 -25 13 -3 9 10 13 18 8 18 -5 0 -14 -7 -21
-15z"/>
<path d="M4612 699 c-13 -16 -20 -29 -16 -29 9 0 44 41 44 52 0 12 -3 10 -28
-23z"/>
<path d="M4745 710 c-10 -11 -15 -23 -12 -27 4 -3 7 -2 7 3 0 5 9 10 20 11 11
1 18 -2 15 -7 -3 -5 5 -14 17 -20 21 -10 21 -10 6 3 -10 8 -15 17 -11 20 3 4
-2 9 -11 13 -9 3 -13 10 -10 15 9 16 -2 10 -21 -11z"/>
<path d="M4900 726 c0 -2 9 -6 20 -9 11 -3 18 -1 14 4 -5 9 -34 13 -34 5z"/>
<path d="M1835 709 c-4 -6 -5 -12 -2 -15 2 -3 7 2 10 11 7 17 1 20 -8 4z"/>
<path d="M5069 703 c-13 -16 -12 -17 4 -4 16 13 21 21 13 21 -2 0 -10 -8 -17
-17z"/>
<path d="M1626 702 c-3 -5 1 -9 9 -9 8 0 12 4 9 9 -3 4 -7 8 -9 8 -2 0 -6 -4
-9 -8z"/>
<path d="M1906 702 c-2 -4 4 -8 14 -8 10 0 16 4 14 8 -3 4 -9 8 -14 8 -5 0
-11 -4 -14 -8z"/>
<path d="M2135 701 c-3 -5 0 -13 6 -17 7 -4 9 -3 5 4 -3 5 0 13 6 15 9 4 10 6
1 6 -6 1 -14 -3 -18 -8z"/>
<path d="M5260 706 c0 -2 8 -10 18 -17 15 -13 16 -12 3 4 -13 16 -21 21 -21
13z"/>
<path d="M5370 705 c0 -7 30 -13 34 -7 3 4 -4 9 -15 9 -10 1 -19 0 -19 -2z"/>
<path d="M1855 691 c-3 -5 -2 -12 3 -15 5 -3 9 1 9 9 0 17 -3 19 -12 6z"/>
<path d="M2061 684 c0 -11 3 -14 6 -6 3 7 2 16 -1 19 -3 4 -6 -2 -5 -13z"/>
<path d="M2093 680 c1 -11 6 -16 16 -12 10 4 12 1 6 -8 -5 -9 -4 -11 3 -6 15
9 15 9 -7 28 -18 16 -20 15 -18 -2z"/>
<path d="M2370 689 c0 -5 -4 -7 -10 -4 -6 4 -7 -1 -3 -12 6 -16 5 -16 -10 -4
-9 7 -17 9 -17 3 0 -22 29 -20 44 4 9 13 12 24 6 24 -5 0 -10 -5 -10 -11z"/>
<path d="M4648 689 c17 -18 15 -34 -3 -19 -9 7 -18 10 -22 6 -3 -3 -1 -6 6 -6
7 0 10 -4 7 -9 -4 -5 2 -8 11 -7 24 4 28 32 6 40 -14 6 -16 5 -5 -5z"/>
<path d="M4696 684 c-8 -21 0 -33 22 -30 9 2 21 -2 25 -8 6 -7 7 -6 4 4 -2 8
-14 14 -26 14 -17 -1 -20 3 -16 17 8 23 0 25 -9 3z"/>
<path d="M4857 681 c-3 -13 -1 -18 9 -14 7 2 10 11 7 19 -7 19 -10 18 -16 -5z"/>
<path d="M4920 691 c0 -6 4 -13 10 -16 6 -3 7 1 4 9 -7 18 -14 21 -14 7z"/>
<path d="M5086 685 c-11 -8 -15 -15 -9 -15 6 0 16 7 23 15 16 19 11 19 -14 0z"/>
<path d="M5175 691 c-3 -5 -2 -12 3 -15 5 -3 9 1 9 9 0 17 -3 19 -12 6z"/>
<path d="M1390 679 c0 -5 5 -7 10 -4 6 3 10 8 10 11 0 2 -4 4 -10 4 -5 0 -10
-5 -10 -11z"/>
<path d="M1970 682 c0 -5 7 -9 15 -9 8 0 12 4 9 9 -3 4 -9 8 -15 8 -5 0 -9 -4
-9 -8z"/>
<path d="M2165 680 c-3 -6 1 -7 9 -4 18 7 21 14 7 14 -6 0 -13 -4 -16 -10z"/>
<path d="M2207 679 c7 -7 15 -10 18 -7 3 3 -2 9 -12 12 -14 6 -15 5 -6 -5z"/>
<path d="M2305 680 c3 -5 8 -10 11 -10 2 0 4 5 4 10 0 6 -5 10 -11 10 -5 0 -7
-4 -4 -10z"/>
<path d="M2397 683 c-11 -11 -8 -23 6 -23 7 0 13 -8 14 -19 1 -14 -4 -18 -20
-15 -21 4 -21 4 -2 -5 15 -7 23 -5 33 8 11 13 10 19 -7 32 -11 9 -17 19 -14
23 4 3 4 6 1 6 -2 0 -8 -3 -11 -7z"/>
<path d="M2270 672 c0 -7 -5 -10 -12 -6 -6 4 -8 3 -4 -4 3 -6 15 -9 25 -7 11
2 22 -3 25 -11 3 -9 10 -13 15 -10 5 4 12 1 14 -4 4 -7 5 -6 4 1 -2 6 -6 9 -9
7 -4 -2 -14 6 -22 17 -9 11 -16 16 -16 10 0 -5 -5 -3 -10 5 -7 11 -10 11 -10
2z"/>
<path d="M4756 667 c3 -10 9 -15 12 -12 3 3 0 11 -7 18 -10 9 -11 8 -5 -6z"/>
<path d="M1770 659 c0 -5 5 -7 10 -4 6 3 10 8 10 11 0 2 -4 4 -10 4 -5 0 -10
-5 -10 -11z"/>
<path d="M2456 661 c-3 -5 6 -8 20 -8 19 0 22 2 13 8 -18 11 -26 11 -33 0z"/>
<path d="M4530 656 c-6 -9 -10 -21 -7 -28 4 -9 6 -7 6 4 1 9 7 18 14 21 6 2 9
7 6 11 -3 4 -12 0 -19 -8z"/>
<path d="M5036 653 c-6 -14 -5 -15 5 -6 7 7 10 15 7 18 -3 3 -9 -2 -12 -12z"/>
<path d="M5255 660 c3 -5 8 -10 11 -10 2 0 4 5 4 10 0 6 -5 10 -11 10 -5 0 -7
-4 -4 -10z"/>
<path d="M1974 640 c0 -13 4 -16 10 -10 7 7 7 13 0 20 -6 6 -10 3 -10 -10z"/>
<path d="M2055 649 c-4 -6 -14 -8 -22 -5 -8 3 -11 2 -8 -3 8 -14 42 -9 42 6 0
16 -4 16 -12 2z"/>
<path d="M2227 647 c-3 -8 1 -14 9 -14 16 0 19 13 5 21 -5 3 -11 0 -14 -7z"/>
<path d="M4431 644 c-16 -11 -19 -20 -12 -27 12 -12 44 9 36 23 -3 5 1 11 7
13 7 3 8 6 3 6 -6 1 -21 -6 -34 -15z m14 -14 c-3 -5 -11 -10 -16 -10 -6 0 -7
5 -4 10 3 6 11 10 16 10 6 0 7 -4 4 -10z"/>
<path d="M4496 644 c-3 -8 -10 -12 -16 -9 -5 3 -10 1 -10 -4 0 -6 5 -11 10
-11 6 0 13 -1 17 -2 3 -2 8 7 9 20 4 25 -1 29 -10 6z"/>
<path d="M4610 645 c0 -8 4 -15 10 -15 5 0 7 7 4 15 -4 8 -8 15 -10 15 -2 0
-4 -7 -4 -15z"/>
<path d="M4817 641 c-4 -17 -3 -21 5 -13 5 5 8 16 6 23 -3 8 -7 3 -11 -10z"/>
<path d="M4938 648 c15 -19 49 -20 49 -1 0 9 -4 10 -14 2 -10 -9 -18 -8 -30 2
-16 13 -17 12 -5 -3z"/>
<path d="M5070 656 c0 -2 8 -10 18 -17 15 -13 16 -12 3 4 -13 16 -21 21 -21
13z"/>
<path d="M1930 639 c0 -5 5 -7 10 -4 6 3 10 8 10 11 0 2 -4 4 -10 4 -5 0 -10
-5 -10 -11z"/>
<path d="M2150 643 c0 -6 8 -17 18 -24 16 -13 16 -13 2 6 -8 11 -16 22 -17 24
-2 2 -3 0 -3 -6z"/>
<path d="M2194 616 c2 -20 5 -39 8 -42 3 -3 5 11 3 31 -1 19 -4 38 -8 41 -3 3
-4 -11 -3 -30z"/>
<path d="M2360 635 c-19 -22 -8 -25 13 -3 9 10 13 18 8 18 -5 0 -14 -7 -21
-15z"/>
<path d="M2502 641 c-11 -7 -10 -9 3 -14 9 -4 13 -3 10 2 -3 5 3 12 12 14 13
3 14 5 3 6 -8 0 -21 -3 -28 -8z"/>
<path d="M4666 642 c-2 -4 4 -8 14 -8 10 0 16 4 14 8 -3 4 -9 8 -14 8 -5 0
-11 -4 -14 -8z"/>
<path d="M4899 633 c-13 -16 -12 -17 4 -4 9 7 17 15 17 17 0 8 -8 3 -21 -13z"/>
<path d="M5214 636 c1 -8 5 -18 8 -22 4 -3 5 1 4 10 -1 8 -5 18 -8 22 -4 3 -5
-1 -4 -10z"/>
<path d="M2540 630 c-8 -5 -12 -12 -9 -15 4 -3 12 1 19 10 14 17 11 19 -10 5z"/>
<path d="M4550 631 c0 -10 19 -25 25 -20 1 2 -3 10 -11 17 -8 7 -14 8 -14 3z"/>
<path d="M4706 623 c-6 -14 -5 -15 5 -6 7 7 10 15 7 18 -3 3 -9 -2 -12 -12z"/>
<path d="M5173 625 c0 -8 4 -12 9 -9 5 3 6 10 3 15 -9 13 -12 11 -12 -6z"/>
<path d="M1795 619 c-3 -4 2 -6 10 -5 21 3 28 13 10 13 -9 0 -18 -4 -20 -8z"/>
<path d="M1855 620 c3 -5 8 -10 11 -10 2 0 4 5 4 10 0 6 -5 10 -11 10 -5 0 -7
-4 -4 -10z"/>
<path d="M2110 616 c7 -7 13 -7 20 0 6 6 3 10 -10 10 -13 0 -16 -4 -10 -10z"/>
<path d="M2275 621 c-9 -15 15 -25 28 -12 9 9 7 10 -7 5 -13 -5 -17 -4 -12 4
4 7 5 12 2 12 -3 0 -7 -4 -11 -9z"/>
<path d="M2433 612 c-8 -14 -8 -19 1 -19 7 0 13 9 13 19 1 10 1 18 0 18 -1 0
-7 -8 -14 -18z"/>
<path d="M4330 620 c0 -5 -6 -7 -14 -4 -8 3 -17 1 -21 -5 -4 -7 0 -8 11 -4 10
4 15 2 11 -3 -3 -6 7 -10 24 -10 16 0 29 4 29 8 0 5 -10 6 -22 2 -20 -6 -21
-5 -9 10 9 10 10 16 2 16 -6 0 -11 -4 -11 -10z"/>
<path d="M2474 612 c-8 -5 -5 -13 9 -27 20 -20 20 -20 9 1 -6 12 -8 24 -5 28
9 8 1 7 -13 -2z"/>
<path d="M2807 614 c-4 -4 -7 -12 -7 -18 0 -6 4 -4 10 4 5 8 12 11 16 7 4 -3
1 -13 -5 -21 -7 -8 -11 -23 -8 -33 3 -13 5 -12 6 6 1 21 3 22 18 10 15 -12 16
-12 8 1 -5 8 -10 21 -10 29 0 16 -18 25 -28 15z"/>
<path d="M3126 613 c-10 -10 -7 -23 5 -23 5 0 7 5 4 10 -3 6 -2 10 4 10 5 0
11 -3 13 -7 2 -5 16 -19 32 -33 16 -14 26 -19 21 -11 -6 11 -4 13 9 8 11 -4
15 -3 11 4 -4 6 -13 8 -21 5 -7 -3 -16 -1 -19 4 -3 4 1 10 7 13 7 2 10 7 7 11
-9 10 -65 16 -73 9z"/>
<path d="M4598 613 c7 -3 16 -2 19 1 4 3 -2 6 -13 5 -11 0 -14 -3 -6 -6z"/>
<path d="M4638 613 c7 -3 16 -2 19 1 4 3 -2 6 -13 5 -11 0 -14 -3 -6 -6z"/>
<path d="M4673 607 c0 -7 9 -14 20 -14 11 -1 18 -1 16 0 -2 2 -11 8 -20 15
-12 9 -16 9 -16 -1z"/>
<path d="M2545 599 c-4 -6 -4 -13 -1 -16 3 -4 6 -1 6 6 0 7 5 9 10 6 6 -3 10
-1 10 4 0 14 -17 14 -25 0z"/>
<path d="M2626 597 c3 -10 9 -15 12 -12 3 3 0 11 -7 18 -10 9 -11 8 -5 -6z"/>
<path d="M2710 603 c5 -2 10 -9 10 -14 0 -6 -4 -8 -9 -4 -16 9 -35 -35 -21
-49 8 -8 9 -6 4 8 -5 13 -4 17 4 12 8 -5 10 -2 6 9 -4 10 -2 15 7 13 8 -2 14
3 14 11 0 8 -6 15 -13 17 -7 1 -8 0 -2 -3z"/>
<path d="M3210 601 c0 -4 9 -12 19 -18 16 -10 20 -9 25 4 4 9 4 18 1 21 -3 3
-5 0 -5 -6 0 -7 -5 -12 -11 -12 -5 0 -8 4 -5 8 3 5 -1 9 -9 9 -8 0 -15 -3 -15
-6z"/>
<path d="M4160 604 c0 -13 18 -39 24 -34 2 3 -2 14 -10 24 -8 11 -14 16 -14
10z"/>
<path d="M4430 589 l-25 -20 25 12 c14 7 28 12 33 11 4 -1 7 3 7 8 0 15 -12
12 -40 -11z"/>
<path d="M4530 598 c0 -6 3 -8 7 -5 3 4 13 1 22 -6 14 -11 14 -10 2 6 -15 20
-31 22 -31 5z"/>
<path d="M4726 598 c3 -4 9 -8 15 -8 5 0 9 4 9 8 0 5 -7 9 -15 9 -8 0 -12 -4
-9 -9z"/>
<path d="M4873 593 c0 -9 4 -10 14 -2 7 6 13 12 13 14 0 1 -6 2 -13 2 -8 0
-14 -6 -14 -14z"/>
<path d="M4910 601 c0 -6 4 -13 10 -16 6 -3 7 1 4 9 -7 18 -14 21 -14 7z"/>
<path d="M1895 591 c-3 -5 -2 -12 3 -15 5 -3 9 1 9 9 0 17 -3 19 -12 6z"/>
<path d="M3797 593 c-4 -3 -7 -11 -7 -17 0 -6 5 -5 12 2 6 6 9 14 7 17 -3 3
-9 2 -12 -2z"/>
<path d="M3884 586 c-10 -8 -17 -16 -14 -19 3 -2 14 4 24 14 23 22 18 25 -10
5z"/>
<path d="M1975 580 c-3 -5 -1 -10 4 -10 6 0 11 5 11 10 0 6 -2 10 -4 10 -3 0
-8 -4 -11 -10z"/>
<path d="M2280 580 c-9 -6 -10 -10 -3 -10 6 0 15 5 18 10 8 12 4 12 -15 0z"/>
<path d="M2516 575 c-9 -26 -7 -32 5 -12 6 10 9 21 6 23 -2 3 -7 -2 -11 -11z"/>
<path d="M2577 584 c-12 -12 5 -32 25 -29 24 5 40 18 18 15 -27 -4 -41 0 -35
10 7 11 2 14 -8 4z"/>
<path d="M3456 575 c-3 -9 -12 -12 -22 -8 -13 5 -12 1 4 -15 25 -25 41 -30 22
-7 -10 12 -9 16 5 22 12 4 23 0 32 -13 8 -10 19 -18 24 -16 12 3 12 -15 -1
-23 -5 -3 -10 -11 -10 -18 0 -6 7 -1 16 12 12 17 13 26 5 34 -6 6 -11 7 -11 2
0 -6 -8 1 -18 15 -20 29 -38 35 -46 15z"/>
<path d="M3655 581 c-3 -6 -10 -9 -15 -6 -16 10 -20 -12 -5 -31 13 -18 14 -18
32 -1 10 10 14 17 8 16 -21 -3 -29 2 -15 11 8 5 12 12 8 15 -3 4 -9 1 -13 -4z
m-5 -26 c7 -9 8 -15 2 -15 -5 0 -12 7 -16 15 -3 8 -4 15 -2 15 2 0 9 -7 16
-15z"/>
<path d="M3730 579 c0 -5 -4 -8 -8 -5 -12 7 -38 -12 -28 -21 5 -4 11 -2 13 5
3 6 8 10 13 7 4 -3 13 2 20 10 9 10 9 15 1 15 -6 0 -11 -5 -11 -11z"/>
<path d="M4255 581 c-3 -6 -3 -11 2 -11 4 0 0 -5 -9 -11 -10 -5 -18 -14 -18
-19 0 -6 9 -2 19 7 11 9 18 20 15 25 -3 4 4 8 15 8 12 0 20 -5 19 -12 -2 -7 7
-13 19 -14 15 -1 20 3 15 14 -4 11 -7 12 -10 4 -5 -16 -23 -16 -19 0 3 16 -39
23 -48 9z"/>
<path d="M5093 569 c-2 -23 3 -25 10 -4 4 8 3 16 -1 19 -4 3 -9 -4 -9 -15z"/>
<path d="M2332 570 c5 -15 49 -22 70 -9 7 4 -3 7 -22 5 -19 -2 -39 2 -43 8 -6
7 -7 6 -5 -4z"/>
<path d="M2420 572 c0 -6 5 -14 10 -17 6 -4 8 -10 6 -14 -3 -4 1 -8 9 -8 12 0
12 4 -2 21 -10 12 -19 23 -20 25 -2 2 -3 -1 -3 -7z"/>
<path d="M2650 570 c-9 -6 -10 -10 -3 -10 6 0 15 5 18 10 8 12 4 12 -15 0z"/>
<path d="M2977 573 c-10 -10 -8 -23 4 -23 5 0 8 4 4 9 -3 5 3 12 12 14 14 4
15 5 2 6 -9 0 -19 -2 -22 -6z"/>
<path d="M3012 564 c-7 -8 -8 -14 -3 -14 10 0 25 19 20 25 -2 1 -10 -3 -17
-11z"/>
<path d="M3094 569 c-3 -6 0 -15 7 -20 19 -12 29 -11 29 1 0 6 -3 9 -7 9 -20
-3 -26 2 -13 11 9 6 10 10 3 10 -6 0 -15 -5 -19 -11z"/>
<path d="M3138 573 c6 -2 10 -8 7 -13 -8 -14 24 -35 36 -23 7 7 4 16 -12 27
-13 9 -28 16 -34 15 -5 0 -4 -3 3 -6z m37 -23 c3 -5 2 -10 -4 -10 -5 0 -13 5
-16 10 -3 6 -2 10 4 10 5 0 13 -4 16 -10z"/>
<path d="M3981 571 c-7 -5 -12 -14 -9 -21 5 -16 38 -22 38 -8 0 6 -7 8 -15 4
-18 -6 -20 10 -3 20 6 4 17 -1 25 -11 11 -16 13 -16 13 -3 0 9 -7 19 -16 22
-19 7 -16 8 -33 -3z"/>
<path d="M4150 570 c0 -6 7 -13 15 -16 8 -4 12 -11 8 -17 -3 -6 -1 -7 5 -3 15
9 15 9 -8 29 -11 9 -20 12 -20 7z"/>
<path d="M4201 564 c0 -11 3 -14 6 -6 3 7 2 16 -1 19 -3 4 -6 -2 -5 -13z"/>
<path d="M4354 551 c0 -16 4 -27 8 -25 4 2 5 14 3 26 -7 32 -13 32 -11 -1z"/>
<path d="M4466 563 c-6 -14 -5 -15 5 -6 7 7 10 15 7 18 -3 3 -9 -2 -12 -12z"/>
<path d="M4506 564 c-5 -14 -4 -15 9 -4 17 14 19 20 6 20 -5 0 -12 -7 -15 -16z"/>
<path d="M4774 560 c0 -13 4 -16 10 -10 7 7 7 13 0 20 -6 6 -10 3 -10 -10z"/>
<path d="M2547 559 c7 -9 11 -18 8 -21 -3 -3 3 -11 12 -19 16 -12 17 -12 6 2
-7 9 -11 18 -8 21 3 3 -3 11 -12 19 -16 12 -17 12 -6 -2z"/>
<path d="M2725 560 c-3 -6 1 -7 9 -4 18 7 21 14 7 14 -6 0 -13 -4 -16 -10z"/>
<path d="M2935 560 c-3 -5 -3 -10 2 -11 4 0 -1 -5 -12 -10 -19 -8 -19 -9 -1
-6 11 1 18 6 17 11 -2 5 3 13 11 17 9 6 9 9 1 9 -6 0 -15 -4 -18 -10z"/>
<path d="M3750 565 c0 -5 5 -17 10 -25 5 -8 10 -10 10 -5 0 6 -5 17 -10 25 -5
8 -10 11 -10 5z"/>
<path d="M4052 553 c2 -11 12 -18 26 -17 18 1 22 -3 17 -20 -2 -11 -2 -15 1
-8 3 6 10 9 16 6 6 -4 6 2 -1 14 -7 14 -18 19 -32 17 -15 -3 -19 0 -15 10 3 8
1 15 -5 15 -6 0 -9 -8 -7 -17z"/>
<path d="M4110 556 c7 -7 13 -7 20 0 6 6 3 10 -10 10 -13 0 -16 -4 -10 -10z"/>
<path d="M4425 559 c-4 -6 -5 -12 -2 -15 2 -3 7 2 10 11 7 17 1 20 -8 4z"/>
<path d="M4594 545 c0 -13 3 -22 7 -19 8 4 6 30 -2 38 -3 3 -5 -5 -5 -19z"/>
<path d="M4810 559 c0 -5 5 -7 10 -4 6 3 10 8 10 11 0 2 -4 4 -10 4 -5 0 -10
-5 -10 -11z"/>
<path d="M2750 550 c-8 -5 -10 -10 -5 -10 6 0 17 5 25 10 8 5 11 10 5 10 -5 0
-17 -5 -25 -10z"/>
<path d="M3596 543 c-9 -22 5 -35 24 -22 12 9 12 10 -3 5 -15 -5 -17 -2 -12
14 8 24 0 27 -9 3z"/>
<path d="M3838 553 c7 -3 16 -2 19 1 4 3 -2 6 -13 5 -11 0 -14 -3 -6 -6z"/>
<path d="M4629 543 c-13 -16 -12 -17 4 -4 16 13 21 21 13 21 -2 0 -10 -8 -17
-17z"/>
<path d="M2096 538 c3 -5 10 -6 15 -3 13 9 11 12 -6 12 -8 0 -12 -4 -9 -9z"/>
<path d="M2135 540 c-3 -5 -1 -10 4 -10 6 0 11 5 11 10 0 6 -2 10 -4 10 -3 0
-8 -4 -11 -10z"/>
<path d="M2480 540 c-9 -6 -10 -10 -3 -10 6 0 15 5 18 10 8 12 4 12 -15 0z"/>
<path d="M2629 534 c7 -15 7 -25 -2 -35 -7 -7 -3 -6 9 4 11 9 24 14 27 10 4
-3 7 -1 7 6 0 7 -6 11 -12 8 -7 -2 -19 3 -26 12 -11 14 -12 13 -3 -5z"/>
<path d="M2830 540 c0 -5 7 -7 15 -4 11 5 14 1 9 -12 -5 -15 -4 -16 4 -4 6 8
8 18 6 22 -7 11 -34 10 -34 -2z"/>
<path d="M3030 545 c0 -5 5 -17 10 -25 5 -8 10 -10 10 -5 0 6 -5 17 -10 25 -5
8 -10 11 -10 5z"/>
<path d="M3270 541 c0 -5 7 -11 14 -14 10 -4 13 -1 9 9 -6 15 -23 19 -23 5z"/>
<path d="M3415 540 c3 -5 11 -10 16 -10 6 0 7 5 4 10 -3 6 -11 10 -16 10 -6 0
-7 -4 -4 -10z"/>
<path d="M3730 541 c0 -5 5 -13 10 -16 6 -3 10 -2 10 4 0 5 -4 13 -10 16 -5 3
-10 2 -10 -4z"/>
<path d="M3871 540 c3 -30 -1 -41 -13 -34 -7 4 -8 3 -4 -4 10 -16 14 -15 25 6
6 12 6 23 0 33 -8 12 -10 12 -8 -1z"/>
<path d="M3950 543 c0 -6 8 -17 18 -24 16 -13 16 -13 2 6 -8 11 -16 22 -17 24
-2 2 -3 0 -3 -6z"/>
<path d="M4135 539 c-4 -6 -4 -13 -1 -16 3 -4 6 -1 6 6 0 7 5 9 12 5 7 -4 8
-3 4 4 -9 15 -13 15 -21 1z"/>
<path d="M4675 541 c-3 -5 -2 -12 3 -15 5 -3 9 1 9 9 0 17 -3 19 -12 6z"/>
<path d="M4959 533 c-12 -16 -12 -17 2 -6 9 7 20 9 24 5 5 -4 5 -1 1 6 -9 16
-11 15 -27 -5z"/>
<path d="M2345 520 c10 -11 20 -20 23 -20 3 0 -3 9 -13 20 -10 11 -20 20 -23
20 -3 0 3 -9 13 -20z"/>
<path d="M2957 533 c-4 -3 -7 -11 -7 -17 0 -6 5 -5 12 2 6 6 9 14 7 17 -3 3
-9 2 -12 -2z"/>
<path d="M2991 533 c-1 -7 8 -17 19 -23 16 -9 18 -8 14 5 -3 8 -10 13 -14 10
-5 -3 -11 1 -13 7 -4 10 -6 10 -6 1z"/>
<path d="M3675 530 c-3 -5 -1 -10 4 -10 6 0 11 5 11 10 0 6 -2 10 -4 10 -3 0
-8 -4 -11 -10z"/>
<path d="M3710 525 c0 -8 4 -15 10 -15 5 0 7 7 4 15 -4 8 -8 15 -10 15 -2 0
-4 -7 -4 -15z"/>
<path d="M4210 526 c0 -8 4 -17 9 -20 5 -4 7 3 4 14 -6 23 -13 26 -13 6z"/>
<path d="M4491 527 c-8 -10 -7 -14 2 -14 8 0 14 6 14 14 0 7 -1 13 -2 13 -2 0
-8 -6 -14 -13z"/>
<path d="M2730 526 c0 -2 7 -7 16 -10 8 -3 12 -2 9 4 -6 10 -25 14 -25 6z"/>
<path d="M2779 513 c-13 -15 -12 -15 7 -5 12 6 25 8 29 4 5 -4 5 -1 1 6 -10
16 -21 15 -37 -5z"/>
<path d="M3125 520 c-3 -6 1 -7 9 -4 18 7 21 14 7 14 -6 0 -13 -4 -16 -10z"/>
<path d="M3320 520 c-9 -6 -10 -10 -3 -10 6 0 15 5 18 10 8 12 4 12 -15 0z"/>
<path d="M3382 522 c-8 -6 -2 -9 18 -9 20 0 26 3 18 9 -7 4 -15 8 -18 8 -3 0
-11 -4 -18 -8z"/>
<path d="M3480 520 c0 -5 5 -10 10 -10 6 0 10 5 10 10 0 6 -4 10 -10 10 -5 0
-10 -4 -10 -10z"/>
<path d="M3564 515 c-4 -8 -10 -13 -15 -10 -4 3 -13 -5 -19 -17 -9 -20 -9 -21
2 -7 7 9 21 15 30 13 10 -1 21 3 25 8 4 7 1 8 -7 3 -10 -6 -12 -4 -7 8 3 10 4
17 1 17 -2 0 -7 -7 -10 -15z"/>
<path d="M3770 520 c-8 -5 -10 -10 -5 -10 6 0 17 5 25 10 8 5 11 10 5 10 -5 0
-17 -5 -25 -10z"/>
<path d="M3830 520 c-8 -5 -10 -10 -5 -10 6 0 17 5 25 10 8 5 11 10 5 10 -5 0
-17 -5 -25 -10z"/>
<path d="M3915 520 c-3 -5 -2 -10 4 -10 5 0 13 5 16 10 3 6 2 10 -4 10 -5 0
-13 -4 -16 -10z"/>
<path d="M4030 519 c0 -5 5 -7 10 -4 6 3 10 8 10 11 0 2 -4 4 -10 4 -5 0 -10
-5 -10 -11z"/>
<path d="M4188 512 c-3 -11 0 -19 7 -19 7 0 10 8 7 19 -2 10 -6 18 -7 18 -1 0
-5 -8 -7 -18z"/>
<path d="M4386 518 c3 -5 10 -6 15 -3 13 9 11 12 -6 12 -8 0 -12 -4 -9 -9z"/>
<path d="M4416 513 c-6 -14 -5 -15 5 -6 7 7 10 15 7 18 -3 3 -9 -2 -12 -12z"/>
<path d="M4777 515 c-4 -8 -3 -16 1 -19 4 -3 9 4 9 15 2 23 -3 25 -10 4z"/>
<path d="M4876 522 c-3 -5 1 -9 9 -9 8 0 12 4 9 9 -3 4 -7 8 -9 8 -2 0 -6 -4
-9 -8z"/>
<path d="M3433 498 c-9 -19 -8 -25 2 -25 8 0 11 7 7 15 -3 10 -1 13 6 8 6 -3
14 -1 18 5 4 7 3 9 -4 5 -5 -3 -12 -1 -14 5 -2 6 -9 0 -15 -13z"/>
<path d="M3627 508 c-12 -10 -14 -17 -6 -28 9 -13 10 -13 6 0 -2 8 3 20 12 27
9 7 13 13 10 13 -3 0 -13 -6 -22 -12z"/>
<path d="M3987 507 c-3 -8 1 -14 8 -14 7 0 11 6 8 14 -3 7 -6 13 -8 13 -2 0
-5 -6 -8 -13z"/>
<path d="M2215 500 c-3 -5 -1 -10 4 -10 6 0 11 5 11 10 0 6 -2 10 -4 10 -3 0
-8 -4 -11 -10z"/>
<path d="M2925 502 c-14 -10 -17 -32 -5 -32 6 0 10 7 10 16 0 9 5 12 12 8 7
-4 8 -3 4 4 -8 14 -8 14 -21 4z"/>
<path d="M3135 499 c-6 -8 -4 -10 5 -4 10 6 12 4 6 -11 -6 -15 -5 -17 5 -6 9
9 10 15 2 23 -8 8 -13 7 -18 -2z"/>
<path d="M3232 500 c3 -8 2 -22 -3 -30 -5 -11 -2 -16 11 -16 10 0 16 5 12 11
-4 5 -7 16 -8 23 -2 8 -6 17 -10 20 -4 4 -4 0 -2 -8z"/>
<path d="M3295 485 c0 -13 3 -21 8 -18 4 2 7 10 7 18 0 8 -3 16 -7 18 -5 3 -8
-5 -8 -18z"/>
<path d="M3655 501 c-3 -5 0 -13 6 -17 8 -5 9 -3 5 5 -10 15 25 11 37 -4 5 -6
7 -4 5 4 -5 16 -44 25 -53 12z"/>
<path d="M3739 508 c-8 -26 -5 -36 9 -31 10 4 13 2 8 -5 -3 -6 -2 -13 3 -16 5
-4 8 2 7 11 -2 9 -8 19 -14 21 -7 2 -10 8 -6 13 3 5 3 9 0 9 -3 0 -6 -1 -7 -2z"/>
<path d="M3795 493 c1 -10 -1 -23 -6 -28 -5 -7 -1 -11 11 -11 13 0 16 5 11 16
-5 8 -6 21 -4 28 3 6 0 12 -5 12 -6 0 -9 -8 -7 -17z"/>
<path d="M3953 495 c0 -8 4 -12 9 -9 5 3 6 10 3 15 -9 13 -12 11 -12 -6z"/>
<path d="M4650 499 c0 -5 5 -7 10 -4 6 3 10 8 10 11 0 2 -4 4 -10 4 -5 0 -10
-5 -10 -11z"/>
<path d="M2582 484 c10 -10 20 -16 22 -13 3 3 -5 11 -17 18 -21 13 -21 12 -5
-5z"/>
<path d="M2689 483 c-13 -16 -12 -17 4 -4 16 13 21 21 13 21 -2 0 -10 -8 -17
-17z"/>
<path d="M3035 489 c-4 -6 -5 -12 -2 -15 2 -3 7 2 10 11 7 17 1 20 -8 4z"/>
<path d="M3181 478 c-13 -20 -12 -22 1 -11 8 7 18 10 22 6 4 -4 4 0 0 10 -8
21 -6 21 -23 -5z"/>
<path d="M3344 485 c-18 -15 -18 -15 0 -8 13 4 17 3 12 -5 -3 -6 -1 -14 5 -18
8 -5 9 -3 4 6 -6 10 -3 12 11 7 18 -7 18 -6 2 6 -10 8 -15 17 -11 20 12 13 -3
7 -23 -8z"/>
<path d="M3390 489 c0 -5 5 -7 10 -4 6 3 10 8 10 11 0 2 -4 4 -10 4 -5 0 -10
-5 -10 -11z"/>
<path d="M4253 487 c0 -8 6 -14 14 -14 9 0 10 4 2 14 -6 7 -12 13 -14 13 -1 0
-2 -6 -2 -13z"/>
<path d="M2470 485 c0 -7 30 -13 34 -7 3 4 -4 9 -15 9 -10 1 -19 0 -19 -2z"/>
<path d="M2833 471 c0 -11 5 -18 9 -15 4 3 5 11 1 19 -7 21 -12 19 -10 -4z"/>
<path d="M2970 478 c0 -6 3 -8 7 -5 3 4 16 -1 27 -10 21 -18 21 -18 2 5 -21
24 -36 29 -36 10z"/>
<path d="M3057 476 c-4 -10 -1 -13 8 -9 8 3 12 9 9 14 -7 12 -11 11 -17 -5z"/>
<path d="M3466 482 c-3 -5 1 -9 9 -9 8 0 12 4 9 9 -3 4 -7 8 -9 8 -2 0 -6 -4
-9 -8z"/>
<path d="M3839 488 c-7 -25 -3 -40 14 -55 22 -18 22 -18 6 2 -9 11 -15 28 -14
38 3 13 -2 26 -6 15z"/>
<path d="M3884 479 c-4 -7 -3 -9 4 -5 5 3 13 0 15 -6 4 -9 6 -10 6 -1 1 17
-16 25 -25 12z"/>
<path d="M4215 481 c-3 -5 -2 -12 3 -15 5 -3 9 1 9 9 0 17 -3 19 -12 6z"/>
<path d="M4313 475 c0 -8 4 -12 9 -9 4 3 8 9 8 15 0 5 -4 9 -8 9 -5 0 -9 -7
-9 -15z"/>
<path d="M4556 473 c-6 -14 -5 -15 5 -6 7 7 10 15 7 18 -3 3 -9 -2 -12 -12z"/>
<path d="M2753 465 c0 -8 4 -12 9 -9 5 3 6 10 3 15 -9 13 -12 11 -12 -6z"/>
<path d="M2865 459 c-3 -4 2 -6 10 -5 21 3 28 13 10 13 -9 0 -18 -4 -20 -8z"/>
<path d="M3080 455 c-7 -8 -17 -12 -23 -8 -6 4 -7 1 -3 -6 6 -9 13 -8 27 5 10
9 19 19 19 21 0 7 -8 2 -20 -12z"/>
<path d="M3588 463 c7 -3 16 -2 19 1 4 3 -2 6 -13 5 -11 0 -14 -3 -6 -6z"/>
<path d="M3860 466 c0 -2 8 -10 18 -17 15 -13 16 -12 3 4 -13 16 -21 21 -21
13z"/>
<path d="M4119 453 c-13 -16 -12 -17 4 -4 16 13 21 21 13 21 -2 0 -10 -8 -17
-17z"/>
<path d="M3135 449 c-4 -6 -5 -12 -2 -15 2 -3 7 2 10 11 7 17 1 20 -8 4z"/>
<path d="M3484 442 c23 -26 23 -26 23 -7 0 8 -3 13 -5 10 -3 -3 -12 1 -21 7
-10 8 -9 4 3 -10z"/>
<path d="M3615 450 c-4 -6 -10 -8 -14 -6 -4 3 -8 -1 -8 -9 0 -10 4 -12 12 -5
7 5 14 8 17 5 2 -3 5 2 5 10 0 18 -3 19 -12 5z"/>
<path d="M3973 445 c0 -8 4 -12 9 -9 5 3 6 10 3 15 -9 13 -12 11 -12 -6z"/>
<path d="M2676 442 c-3 -5 1 -9 9 -9 8 0 12 4 9 9 -3 4 -7 8 -9 8 -2 0 -6 -4
-9 -8z"/>
<path d="M3159 448 c-5 -18 -6 -38 -1 -34 7 8 12 36 6 36 -2 0 -4 -1 -5 -2z"/>
<path d="M3315 440 c3 -5 8 -10 11 -10 2 0 4 5 4 10 0 6 -5 10 -11 10 -5 0 -7
-4 -4 -10z"/>
<path d="M3375 441 c-3 -5 -2 -12 3 -15 5 -3 9 1 9 9 0 17 -3 19 -12 6z"/>
<path d="M3679 439 c-7 -4 4 -6 24 -5 21 2 39 5 42 8 8 7 -54 5 -66 -3z"/>
<path d="M3896 433 c-6 -14 -5 -15 5 -6 7 7 10 15 7 18 -3 3 -9 -2 -12 -12z"/>
<path d="M2574 422 c4 -3 14 -7 22 -8 9 -1 13 0 10 4 -4 3 -14 7 -22 8 -9 1
-13 0 -10 -4z"/>
<path d="M2866 418 c3 -5 10 -6 15 -3 13 9 11 12 -6 12 -8 0 -12 -4 -9 -9z"/>
<path d="M3300 426 c0 -2 8 -10 18 -17 15 -13 16 -12 3 4 -13 16 -21 21 -21
13z"/>
<path d="M3550 422 c0 -5 7 -9 15 -9 8 0 12 4 9 9 -3 4 -9 8 -15 8 -5 0 -9 -4
-9 -8z"/>
<path d="M4334 422 c4 -3 14 -7 22 -8 9 -1 13 0 10 4 -4 3 -14 7 -22 8 -9 1
-13 0 -10 -4z"/>
<path d="M2475 400 c3 -5 8 -10 11 -10 2 0 4 5 4 10 0 6 -5 10 -11 10 -5 0 -7
-4 -4 -10z"/>
<path d="M3255 400 c3 -5 8 -10 11 -10 2 0 4 5 4 10 0 6 -5 10 -11 10 -5 0 -7
-4 -4 -10z"/>
<path d="M3436 398 c3 -5 10 -6 15 -3 13 9 11 12 -6 12 -8 0 -12 -4 -9 -9z"/>
<path d="M3470 400 c0 -5 5 -10 11 -10 5 0 7 5 4 10 -3 6 -8 10 -11 10 -2 0
-4 -4 -4 -10z"/>
<path d="M3853 391 c0 -11 5 -18 9 -15 4 3 5 11 1 19 -7 21 -12 19 -10 -4z"/>
<path d="M3897 395 c-4 -8 -3 -16 1 -19 4 -3 9 4 9 15 2 23 -3 25 -10 4z"/>
<path d="M4095 400 c-3 -5 -1 -10 4 -10 6 0 11 5 11 10 0 6 -2 10 -4 10 -3 0
-8 -4 -11 -10z"/>
<path d="M4266 398 c3 -5 10 -6 15 -3 13 9 11 12 -6 12 -8 0 -12 -4 -9 -9z"/>
<path d="M2915 380 c3 -5 8 -10 11 -10 2 0 4 5 4 10 0 6 -5 10 -11 10 -5 0 -7
-4 -4 -10z"/>
<path d="M2974 382 c4 -3 14 -7 22 -8 9 -1 13 0 10 4 -4 3 -14 7 -22 8 -9 1
-13 0 -10 -4z"/>
<path d="M3055 380 c-3 -5 -1 -10 4 -10 6 0 11 5 11 10 0 6 -2 10 -4 10 -3 0
-8 -4 -11 -10z"/>
<path d="M3335 380 c3 -5 8 -10 11 -10 2 0 4 5 4 10 0 6 -5 10 -11 10 -5 0 -7
-4 -4 -10z"/>
<path d="M3535 380 c3 -5 8 -10 11 -10 2 0 4 5 4 10 0 6 -5 10 -11 10 -5 0 -7
-4 -4 -10z"/>
<path d="M3610 379 c0 -5 5 -7 10 -4 6 3 10 8 10 11 0 2 -4 4 -10 4 -5 0 -10
-5 -10 -11z"/>
<path d="M3650 379 c0 -5 5 -7 10 -4 6 3 10 8 10 11 0 2 -4 4 -10 4 -5 0 -10
-5 -10 -11z"/>
<path d="M3954 382 c4 -3 14 -7 22 -8 9 -1 13 0 10 4 -4 3 -14 7 -22 8 -9 1
-13 0 -10 -4z"/>
<path d="M4059 388 c-5 -18 -6 -38 -1 -34 7 8 12 36 6 36 -2 0 -4 -1 -5 -2z"/>
<path d="M3746 362 c-3 -5 1 -9 9 -9 8 0 12 4 9 9 -3 4 -7 8 -9 8 -2 0 -6 -4
-9 -8z"/>
<path d="M3790 366 c0 -2 7 -7 16 -10 8 -3 12 -2 9 4 -6 10 -25 14 -25 6z"/>
<path d="M3550 341 c0 -6 4 -13 10 -16 6 -3 7 1 4 9 -7 18 -14 21 -14 7z"/>
<path d="M3080 326 c0 -2 8 -10 18 -17 15 -13 16 -12 3 4 -13 16 -21 21 -21
13z"/>
</g>
</svg>
